<svg xmlns="http://www.w3.org/2000/svg" viewBox="0 0 595.28 595.28"><defs><style>.cls-1{isolation:isolate;}.cls-2{fill:#f5cac9;}.cls-2,.cls-3{mix-blend-mode:multiply;}.cls-3{fill:#c5465d;}</style></defs><g class="cls-1"><g id="Layer_1" data-name="Layer 1"><path class="cls-2" d="M430.33,490.37c14.75-1.73,29.53-3.15,44.24-5.31,8.53-1.25,9.9-4.28,11.8-13.79,3.24-16.28,1.17-32.62,1.13-48.91-.05-15.12-1.41-30.24-1.83-45.37-.86-30.71-1.69-61.43-2.12-92.16-.34-24.2.11-48.41-.12-72.61-.21-21.3-1.05-42.59-1.25-63.89-.08-8.15,1.17-16.31,1.22-24.47.06-10.62-1.51-12.61-10-12.89-65.59-2.12-126.11,16.73-179.62,62.8-27.09,23.31-48.67,52.3-59.72,90.63-16.08,55.74-4.78,105,26.83,148.34,26.55,36.38,61.77,55.78,100.51,67.05A273,273,0,0,0,430.33,490.37Z"/><path class="cls-3" d="M190.31,127.12c4.22-8.59,7.16-15,10.5-21.26,4.13-7.73,7.75-9.8,16.27-7.68,6.38,1.58,13.11,3.73,18.39,7.45,35.09,24.71,63.12,55.23,76.39,97.12,11.13,35.13,9.7,70.38,0,105.55-15.44,56-53.18,92.17-104.32,115.7-28.85,13.26-59.34,20.58-91.47,17.46-8.14-.79-16.48-2.11-24.12-4.87-19.59-7.06-21-14.06-15.66-31.59,6.73-22,16.56-43,24.94-64.48,9.09-23.33,17.63-46.89,27.19-70,9.13-22.08,19.41-43.69,28.9-65.63,10.41-24.08,20.51-48.3,30.74-72.46Z"/></g></g></svg>