<svg id="Layer_1" data-name="Layer 1" xmlns="http://www.w3.org/2000/svg" viewBox="0 0 595.28 595.28"><defs><style>.cls-1{fill:#718c9b;}.cls-2{fill:none;stroke:#bcc8ce;stroke-miterlimit:10;stroke-width:8px;}</style></defs><path d="M206.84,288.65a15.75,15.75,0,0,1,1.35,6.92,43.19,43.19,0,0,1-1,5.23,1.69,1.69,0,0,1-.37.63c-.71.91-1.52,1.74-2.78,1.52a2.8,2.8,0,0,1-2.29-2.4,11.41,11.41,0,0,1-.12-3.82,15.3,15.3,0,0,1,3.33-7.15C205.37,289,205.79,288.31,206.84,288.65Z"/><path d="M377,264.34c.35,1.92.76,3.65,1,5.4a13,13,0,0,1-.11,3.64c-.37,2.09-1.53,3-3.82,3.49a2.91,2.91,0,0,1-3.53-3.05,5.57,5.57,0,0,1,.26-1.82,15.4,15.4,0,0,1,5.34-7.39A4,4,0,0,1,377,264.34Z"/><path d="M358.78,345.39l-.92.41c.9,2.12-.68,3.23-1.73,4.51a5.79,5.79,0,0,1-1.71,1.53,9.82,9.82,0,0,1-2.33.58c.07-.9-.72-.9-1.4-1,.47-1.25-.55-2.35-.09-3.59a27.11,27.11,0,0,0,.8-3.62,6.69,6.69,0,0,1,1.4-3.31c.73.28,1.48.81,1.78.62.5-.31.72-1.08,1.16-1.81a3.92,3.92,0,0,1,3.18,2.87c.21.61.63,1.26-.22,1.8C358.57,344.45,358.75,345,358.78,345.39Zm-4.32-2.78a34.68,34.68,0,0,0,2.42,2.59c.19.18.84-.15,1.58-.31-1-1.05-2-1.7-1.71-3.08.06-.28-.4-.68-.65-1.08Z"/><path d="M272.37,195.36A18.79,18.79,0,0,1,271,206.14a4.76,4.76,0,0,1-3.49,2.8A2,2,0,0,1,265,206.5a17.53,17.53,0,0,1,.78-1.72c.18-.51.51-1.15.35-1.58a2.34,2.34,0,0,1,.7-2.52q1.78-2.12,3.69-4.13A10.57,10.57,0,0,1,272.37,195.36Z"/><path d="M355.92,207.06a11.89,11.89,0,0,1-3.54-1.66,10.32,10.32,0,0,1-4.7-4.06,9.94,9.94,0,0,1-.74-1.5c-.32-.88-.74-2,.06-2.61s1.62-1.68,3-1.42a4.37,4.37,0,0,1,3.55,2.32,27.33,27.33,0,0,1,2.47,8.13A3,3,0,0,1,355.92,207.06Z"/><path d="M288,362.77a13.34,13.34,0,0,1-.5-1.88c-.31-2.87-.18-5.68,1.57-8.15,1.25-1.77,3-2.15,4.65-1.12a3.27,3.27,0,0,1,1.25,4.76A15.32,15.32,0,0,1,288,362.77Z"/><path d="M395.12,291a32.67,32.67,0,0,1,0-3.43,34.47,34.47,0,0,1,.8-5.48c.54-2.08,1.86-3.05,3.58-2.83a4.28,4.28,0,0,1,3.36,2.27,2.92,2.92,0,0,1,.1,1.94,7.6,7.6,0,0,1-1.09,2.14c-1.63,2.39-4,4-6.28,5.6Z"/><path d="M186.21,319.67c.16-1.51.28-2.73.44-3.95a2.67,2.67,0,0,1,.32-1.23,3.68,3.68,0,0,1,1.41-1.26c.22-.08.85.57,1.13,1a23,23,0,0,1,3,8.27,4.48,4.48,0,0,1-.44,2.67,2.45,2.45,0,0,1-4.25.5,9,9,0,0,1-1.42-3.14A14.19,14.19,0,0,1,186.21,319.67Z"/><path d="M342.07,354.52c.19.36.4.57.4.78,0,3.5-.71,6.73-3.3,9.3a5.61,5.61,0,0,1-.7.59,3.63,3.63,0,0,1-3.85,0,3.37,3.37,0,0,1-.71-3.6,6.89,6.89,0,0,1,1.06-1.94A17.12,17.12,0,0,1,342.07,354.52Z"/><path d="M364.59,418.1c-.51-.09-.94-.17-1.36-.23-1.92-.31-2.67-1.64-1.75-3.35a7.23,7.23,0,0,1,1.73-2.15,15.5,15.5,0,0,1,5.78-3.23c1.95-.52,2.84.27,2.28,2.17-.92,3.09-2.52,5.65-5.87,6.61-.18.05-.35.12-.53.16A1.05,1.05,0,0,1,364.59,418.1Z"/><path d="M326.34,279.39c.26.28.47.39.5.54.57,2.89,1.45,5.75.69,8.75a4.87,4.87,0,0,1-3.94,3.83c-.09-.08-.26-.2-.25-.25a2.9,2.9,0,0,0-1.12-3.23,2.61,2.61,0,0,1-.56-3.32A19.7,19.7,0,0,1,326.34,279.39Z"/><path d="M410,309.35l1,1c2.38-.89,1.15-2.45.52-4a11.74,11.74,0,0,1,1.36-.19c1.4,0,1.6-.26,1.1-1.62-.57-1.57-.55-1.6,1.47-2.47a2.4,2.4,0,0,1,1,2.19,4.19,4.19,0,0,0,.41,1.91c1.59,3.27-.35,6.84-2.66,8.25-1.49.9-4.28.08-4-2.37A14.55,14.55,0,0,0,410,309.35Z"/><path d="M343.71,169.79a7.57,7.57,0,0,1,.06,5.77,5.58,5.58,0,0,1-3.35,3,2.14,2.14,0,0,1-2.5-.66,6,6,0,0,1-.37-6.27c.37-.6.71-.93,1.4-.62.85.38,1.11-.13,1.31-.92a1.59,1.59,0,0,1-1.48-2c.57.43,1,1.28,1.82.63.16-.12.56,0,.82.08C342.14,169.1,342.84,169.42,343.71,169.79Z"/><path d="M314.88,411.2a29.31,29.31,0,0,1-4.19-7,3.94,3.94,0,0,1-.17-1.09c-.14-2,.59-3.27,2-3.48,2.22-.34,4.27.86,4.54,2.84A11.31,11.31,0,0,1,314.88,411.2Z"/><path d="M248.52,386.46c.14-.54.11-1.48.55-1.84.71-.57,1.52.15,2.15.57,1.58,1.05,3.43,1.79,4.42,3.56a10.33,10.33,0,0,1,1,2.15,2.6,2.6,0,0,1-.88,3.14c-1.15.8-2,.84-3.4-.13C249.86,392.17,248.85,389.6,248.52,386.46Z"/><path d="M251.41,427.86a11.19,11.19,0,0,1-2.35-5.42,11.46,11.46,0,0,1,.05-3.65,2.72,2.72,0,0,1,4.75-1.54,4.06,4.06,0,0,1,1.2,2.38A9.54,9.54,0,0,1,251.41,427.86Z"/><path d="M297.5,229.78c1.21,3.52,2.38,6.56,1,9.9a3.64,3.64,0,0,1-3.47,2.58,1.46,1.46,0,0,1-1.67-1.15,8.08,8.08,0,0,1-.3-2.91C293.55,235.07,295.13,232.46,297.5,229.78Z"/><path d="M332.42,205.92a11.09,11.09,0,0,1,.54,2.32c0,2.15,0,4.3-.16,6.44a5,5,0,0,1-1,2.16,2.3,2.3,0,0,1-4.26-.71,6.06,6.06,0,0,1,.31-4.87,55,55,0,0,1,3.62-4.88C331.61,206.21,331.9,206.17,332.42,205.92Z"/><path d="M310.61,422.11c2.73,1.84,5.06,3.44,5.95,6.39a3.41,3.41,0,0,1-1.06,4,2,2,0,0,1-3-.05,7.85,7.85,0,0,1-2.3-4.34,17.62,17.62,0,0,1-.62-4C309.58,423.51,310.19,422.9,310.61,422.11Z"/><path d="M233.09,400.34a2.94,2.94,0,0,1,.32.52c1.13,3.58,1.15,7-1.09,10.24a5.37,5.37,0,0,1-.73.84c-1,.89-2,.82-2.58-.36a5.61,5.61,0,0,1-.75-2.8,12.66,12.66,0,0,1,3.63-7.7A6.47,6.47,0,0,1,233.09,400.34Z"/><path d="M284.85,260.3c.94,1.22,1.9,2.34,2.69,3.56a7.39,7.39,0,0,1,.9,4.48c-.05.91-.21,1.79-1.14,2.15a2.49,2.49,0,0,1-2.62-.47,7.29,7.29,0,0,1-2.57-4c-.29-1.31-.34-2.67-.51-4.13Z"/><path d="M317.54,182.73c.44-.32.9-.6,1.31-.95s1-.71,1-1c-.06-1.31.8-1.11,1.69-1.13.17-1,.47-2,2-2,.06,2.76,0,5.5-1.3,8a6.81,6.81,0,0,1-3.38,3,6.42,6.42,0,0,1-1.56.25c.14-.61.23-1,.35-1.51l-1.4.3a4.44,4.44,0,0,1,.19-4.67l-.05,0c0,.43,0,1,.6.9.82-.1.67-.72.56-1.28Z"/><path d="M418.73,378.84c.8,3.35-.66,7.42-3.33,9.2a4.58,4.58,0,0,1-1.67.72c-1.42.24-2.19-.41-2.36-1.86a4.63,4.63,0,0,1-.07-.74c.09-2.63,4.1-7,6.74-7.41A2.72,2.72,0,0,1,418.73,378.84Z"/><path d="M270,303.4c-.45-.54-1-.87-.95-1.18a8,8,0,0,1,1.74-5,3.26,3.26,0,0,1,3.5-1.1,3.2,3.2,0,0,1,2,3.25,4.74,4.74,0,0,1-1.31,3.19,29,29,0,0,1-3.08,2.66c-.41.33-.86.66-1.5.26s-.6-1-.52-1.61A2.21,2.21,0,0,1,270,303.4Z"/><path d="M288.46,424.55c2.28,2.38,4.26,4.67,4.78,7.86a4,4,0,0,1,0,1.29,3.11,3.11,0,0,1-2.21,2.5,2.6,2.6,0,0,1-2.55-1.51,8.26,8.26,0,0,1-1-2.74A13,13,0,0,1,288.46,424.55Z"/><path d="M433.82,332.19c.39.4.35.8-.12,1.05-.68.36-.71.75-.54,1.5s-.29,1.36-.53,2.3l1,1.4c-.32,1.91-1.36,2.95-3,3a2.73,2.73,0,0,1-3-2.25,5.69,5.69,0,0,1,.08-2.53,15.23,15.23,0,0,1,3.66-6.37c.67.18,1,.58.8,1.22a.86.86,0,0,0,.49,1.19c.66.39.85-.2,1.19-.49Z"/><path d="M307.64,377.25a12,12,0,0,1,7.35,3.42,6.32,6.32,0,0,1,1.12,2.1,2,2,0,0,1-.5,2.38,2.48,2.48,0,0,1-2.58.59,4.41,4.41,0,0,1-1.61-.87C309.37,382.86,307.58,380.68,307.64,377.25Z"/><path d="M306.14,352.62c2.07,1,4.18,1.71,5.7,3.44a5.39,5.39,0,0,1,1.56,3.83,2.59,2.59,0,0,1-.06.74,3.06,3.06,0,0,1-2,2.22c-1.16.28-1.58-.88-2-1.6-.57-1-1-2-2.23-2.39a1,1,0,0,1-.53-.69c-.31-1.62-.57-3.25-.82-4.88C305.7,353.15,305.9,353,306.14,352.62Z"/><path d="M385.61,342.42v2.67c-.3.35-.87.73-.9,1.14s.44.93.69,1.39A10.56,10.56,0,0,1,379,352c-.77-1-.32-2.17,0-3.14a25.22,25.22,0,0,1,1.86-4.62,5.74,5.74,0,0,1,1.74-1.87c.61-.46,1.37-.91,2.16-.09C384.85,342.49,385.33,342.39,385.61,342.42Z"/><path d="M445.27,392.88c-.15-1.41.56-2.26,2.11-2.58a5.75,5.75,0,0,0,1.4-.35c1.35-.64,1.34-.66,2.71-.15l1.81-1.19c.48,3.32-3,7.88-6.91,9l.11-1.62-1.47-.32h0c.52-.22,1-.37.52-1.14a4.7,4.7,0,0,1-.29-1.68Z"/><path d="M219.58,387.49c-.05,1.29-.37,2.49-1.59,3s-2.34-.38-3.07-1.27a9.34,9.34,0,0,1-1.72-7c.09-1.07.68-1.39,1.52-.95,1.89,1,3.64,2.19,4.45,4.3A12.87,12.87,0,0,1,219.58,387.49Z"/><path d="M257.24,256.38c.88-.48,1.66-.72,1.79-1.64,0-.12.8-.31,1.08-.17a32,32,0,0,1,4.05,2.26,4.14,4.14,0,0,1,1.3,4.86,1.64,1.64,0,0,1-2.45,1.15c-2-.76-3.16-2.5-4.32-4.18a.91.91,0,0,1,0-.69C259.17,256.35,259.18,256.35,257.24,256.38Zm2.5.78.48.15c.07-.29.14-.58.18-.87a.8.8,0,0,0-.3-.09C260,256.61,259.86,256.88,259.74,257.16Z"/><path d="M232.34,348.85a19.48,19.48,0,0,1,3-.24,4.63,4.63,0,0,1,1.8.73c1,.56,2,1.19,3.09,1.86l-.11,1.69c.22.56,1.33.33,1.09,1.26s-.89,1.13-1.61,1.36a1.55,1.55,0,0,1-.37,0c-1.92,0-3.38-1-4.9-2S232.12,351,232.34,348.85Z"/><path d="M379.14,393.6l5,2.21a2.62,2.62,0,0,1,1.65,1.87c0,.17.2.39.14.5-.33.62-1,1.1-.17,1.91.4.38.44,1.13.68,1.84l-1.71.28.08,1.2c-.23.06-.38.15-.45.1-3.22-2-4.69-5.15-5.51-8.67C378.75,394.53,379,394.16,379.14,393.6Z"/><path d="M403.39,226.29v2.5c-.95,1.19-2.35.89-3.64.18a14.36,14.36,0,0,1-6.56-7.06,21.48,21.48,0,0,1,2.61-.41,1.73,1.73,0,0,1,1.2.55,1.38,1.38,0,0,0,1.83.39c.22,1.15.45,2.28,1.93,2.42a.66.66,0,0,1,.42.33C401.59,226.26,402.5,226.35,403.39,226.29Z"/><path d="M413,405.19c.1-.64.44-1,1.13-.91,2.4.38,3.58,1.56,3.21,4.06a17.21,17.21,0,0,1-1.4,4.38c-.65,1.44-1.56,2.77-2.52,4.45-.38-1.15-1.61-1.6-.89-2.84.06-.09-.28-.47-.49-.65-.5-.41-.73-.89-.25-1.4s.8.11,1.15.38a1.15,1.15,0,0,0,.34.13.86.86,0,0,0,.26-1.41c-.95-1.19-.58-2.76-1.31-4l.35.13c.45.13,1,.53,1.26-.14a1.73,1.73,0,0,0-.12-1.15A5.87,5.87,0,0,0,413,405.19Z"/><path d="M248,301.31c-1.27-.1-1.19,1-1.4,1.82-2.26-.15-2.83-.62-2.89-2.55a6,6,0,0,1,.44-2.32c.77-1.88,3.65-4.36,6.08-5.23-.14,1.72.66,3.3-.71,4.9-.52.61-.68,1.55-1.49,2.07C247.82,300.12,248,300.78,248,301.31Z"/><path d="M341,410.91c-.71.53-1.21,1-1.76,1.31s-1.27.75-2,1.18a11.65,11.65,0,0,1-4.6-6.16c3.35-.41,6.42-.36,9.08,1.81.79.65.88,1.4.17,1.83A1.53,1.53,0,0,1,341,410.91Z"/><path d="M226.19,327.39c-.08.39-.19,1.12-.39,1.82a1.64,1.64,0,0,1-2.54,1.12c-2.1-.91-3.66-4.68-2.81-6.78a1.65,1.65,0,0,1,1.55-1.1,4,4,0,0,1,4.11,3.48C226.17,326.29,226.15,326.67,226.19,327.39Z"/><path d="M420.89,264.29c-.71-.82-1.74-1.25-2.12-2.54a3.18,3.18,0,0,0,.64.32c.32.06.65.07,1,.1,0-.34.15-.76,0-1a17.36,17.36,0,0,0-1.38-1.7c0-.8.06-1.58.12-2.36a1.59,1.59,0,0,1,.23-.85A16,16,0,0,1,420.6,255a6.07,6.07,0,0,1,.92,1.28,56.58,56.58,0,0,1,2,6.16c.58,2.57-.25,4.19-2.5,5.48C420.34,266.71,419.56,265.54,420.89,264.29Z"/><path d="M265.61,320.32a6.76,6.76,0,0,1,2.95,3.4c.78,1.47,1.45,3,.8,4.76a5.78,5.78,0,0,1-.37.84c-.91,1.52-2.17,1.6-3.22.2a3.9,3.9,0,0,1-.62-1.13,13.17,13.17,0,0,1,0-7.64C265.22,320.6,265.43,320.49,265.61,320.32Z"/><path d="M428.66,366.46l1-.53.91,1.37c1.06-1.25.37-2.3,0-3.67l-.78,1.08c-.22-.38-.44-.73-.82-1.37.65,0,1.16-.26,1.51-.1a8.36,8.36,0,0,1,4.7,4.23,8.06,8.06,0,0,1,.52,3c0,1.82-2.2,3.67-4.14,1.94a4.12,4.12,0,0,0,.17-1.65c-.16-.51-.73-.89-1.19-1.41l.6-.82Z"/><path d="M389.67,425l-1.05-.77,2.49-3.64a8.07,8.07,0,0,1,2.81,6.5,2.41,2.41,0,0,1-.29,1.23c-.52.81-1,2-2.14,1.72s-2.33-.54-2.79-1.86A2.35,2.35,0,0,1,389.67,425Z"/><path d="M345.71,289.45a1.58,1.58,0,0,1-.35-2.48c-.69-.45-1.29-.84-1.89-1.21s-1.21-.41-.94-1.12c.15-.41.71-.67,1.08-1-.29-.18-.83-.34-.95-.66a1.41,1.41,0,0,1,.37-1.15,21.18,21.18,0,0,1,2.87-2.58c.87-.62,1.54-.26,1.72.8.4,2.39.64,4.78-.6,7.18l-.73-.32C345.32,287.54,345.34,288.44,345.71,289.45Z"/><path d="M352.5,304l2,2.21-1.21.08a6.26,6.26,0,0,0-.17,1.64c.1.64.82.59,1.27.85a6.94,6.94,0,0,1,1.51,1.68,7.29,7.29,0,0,1-3.93,2.31c-.94.27-1.83-.38-2.33-1.44a5.37,5.37,0,0,1,.92-5.88,7.94,7.94,0,0,1,1-.86C351.83,304.33,352.15,304.16,352.5,304Z"/><path d="M253.31,230.91c-1.16.74-2.23,1.49-1.87,3.12,0,.17-.15.42-.29.58-.35.42-.74.81-1.22,1.32l-1.1-.92-1,.71c-.11-.13-.27-.24-.33-.39a19.37,19.37,0,0,1-1-2.78c-.44-2,.87-4.07,2.68-4.18a4.54,4.54,0,0,1,3.61,1.58A4.82,4.82,0,0,1,253.31,230.91Z"/><path d="M230,434.25a5.74,5.74,0,0,1,.4-4,2.49,2.49,0,0,1,3.4-1.29c2.12.79,2.91,1.9,3.22,4.6-1,.09-2.36-.48-2.95,1,0,.06-.23.08-.35.07Z"/><path d="M203.43,328.92c1.94.34,2.54.85,2.77,2.47.14,1.08.21,2.13,1.6,2.35.16,0,.33.34.4.55s.12.67,0,.71c-1.35.57,0,1.92-.79,2.67a1.57,1.57,0,0,1-2.43.06,5,5,0,0,1-.36-.42A10.23,10.23,0,0,1,203.43,328.92Z"/><path d="M365.63,377.17l1,1.7,1.52-.85a16.77,16.77,0,0,1-5.7,8.94,9.5,9.5,0,0,1-.65-5.64,1,1,0,0,1,.46-.76A4.56,4.56,0,0,0,365.63,377.17Z"/><path d="M285.82,327.86a1.69,1.69,0,0,0,2.28-.5c1.06.48.68,1.42.7,2.14,0,.92.14,1.61,1.39,1.67a7.23,7.23,0,0,1-3.43,2.75c-1.33-1.51-1.48-1.57-3.28-1.33.35-2.16.34-4.37,2-6.31C285.6,327,285.72,327.44,285.82,327.86Z"/><path d="M340.8,251.56c2.23,2.27,2.6,3.13,2.4,5.33-.5,1-2.55.47-2.17,2.12l-2.77-.31c-1.19-2.09-1.19-2.28.13-3.72l-1-1.17c.67.19,1,.42,1.32.35a2.18,2.18,0,0,0,1.13-.7A12.46,12.46,0,0,0,340.8,251.56Z"/><path d="M273.62,387.82l-2.73,3.87c-1.56-1.89-2.63-5.95-2.39-8.83,1.13.27,2.31.33,2.68,1.77.05.19.3.37.49.49.72.44,1.37.89,1.08,1.93C272.71,387.17,273.16,387.42,273.62,387.82Z"/><path d="M380.1,318a6.56,6.56,0,0,1,0-.93c.18-.94-.25-1.2-1.11-1.06a9.6,9.6,0,0,1-1.59.2c-.2,0-.39-.26-.91-.64l2.35-.29a8.47,8.47,0,0,1-.27-2c.07-.75-.12-1.18-1-1.36a5.57,5.57,0,0,1,3.43-1.32C384.5,313.38,383.65,315.4,380.1,318Z"/><path d="M403.8,339.69c1.45.85,1.93,2.34,2.67,3.65.46.82,0,1.28-.76,1.77l1.52,1a11.23,11.23,0,0,1-3.79,3.13C403.32,345.88,402,342.76,403.8,339.69Z"/><path d="M262.17,356l1.13,1.58c.19.69-.84.94-.49,2a2.46,2.46,0,0,0,1.74,1.92c2.42.9,3.08,1.1,1,3.93-1.17-.06-1.84-1.92-3.24-.83a6.8,6.8,0,0,1-1.41-5.19c.12-.76,0-1.65,1.1-1.84A6.62,6.62,0,0,0,262.17,356Z"/><path d="M289.13,218.82c1.58-.51,1.83-2.33,3.43-2.6a.58.58,0,0,0,.3-.43c0-1.13.58-1.64,1.73-1.67.31,0,.91-.6.86-.78-.43-1.51,1.69-2,1.32-3.56-.06-.26,1-.78,1.52-1.17,1.28,2,1.29,2.65.08,4.24a20.29,20.29,0,0,1-8.64,6.14C289.65,219,289.52,218.93,289.13,218.82Z"/><path d="M312.7,314.54c-1.06,1.33-1.32-.34-2.23-.41l.42,1.32c-1.84.32-2,.25-2.62-1.33a7.39,7.39,0,0,1,1-7.05l1.8,2.12-.45.83C311.3,311.56,312,313,312.7,314.54Z"/><path d="M364.51,234.88c-1.28-.15-2.12-1.37-3.53-1.38-.57,0-1-.84-.8-1.65.43-2.23,2.63-3.13,4.74-1.73a4.57,4.57,0,0,1,2.16,4.12c-1.17-1.27-1.43-1.26-2.22.07-.12.21-.26.42-.4.62Z"/><path d="M273.23,410.38c.39-1.79,0-2.26-1.38-1.79a4.22,4.22,0,0,1-2.88-.36,3.45,3.45,0,0,1,1.44-2.86,2.69,2.69,0,0,1,4,.74c.83,1.36,1,2.69.64,5.2l-.91-.49Z"/><path d="M340.1,323.21c-.15-.85-.23-1.3-.33-1.89l-1.94.23.66-1.39-2.5-2.89a18.81,18.81,0,0,1,2.47-2.4c1.21-.82,2-.46,2.27,1A11.9,11.9,0,0,1,340.1,323.21Z"/><path d="M395.54,254.36,390.76,249a3.65,3.65,0,0,1,5.39-.35C397.36,249.72,397.14,252.23,395.54,254.36Z"/><path d="M313.93,453.68c.71,1.18,1.9.63,3,1.26.44-.64.87-1.27,1.54-2.23.27.89.37,1.24.49,1.62l1.23.17a6,6,0,0,1-2.19,3.19,3,3,0,0,1-3.59.4c-1-.67-1.31-1.79-.93-3.33A7.55,7.55,0,0,1,313.93,453.68Z"/><path d="M268.34,440.32c1.71-2.6,3.74-4.34,7.19-4.69-.63,1.92-1.14,3.53-1.69,5.12a.92.92,0,0,1-.38.34c-.71-.73-1.53.52-2.39-.23C270.52,440.38,269.45,440.51,268.34,440.32Z"/><path d="M290,290.67a1.3,1.3,0,0,1-1.92-.87,7.36,7.36,0,0,1-.36-4.39c.42-2,2.42-2.7,4.84-1.61l-.15,1.49c-.65-.18-1.31-.43-1.77.26-.29.44-.82.89-.79,1.3s.73.61,1.29,1Z"/><path d="M247.73,273.82l.28-2.33c.39.48.76.74.83,1.06a26,26,0,0,1,.65,4,19,19,0,0,1-.34,3.27c-2.08.22-2.91-.28-3.82-2.37l1.58-1.43c.22-1-.63-1.16-1.43-1.62l2.29-.62c.64.46.64.46.9-.6Z"/><path d="M319.64,239.47c-.1,3-4.81,7.24-8.07,7.09,0-.61-.24-1.4.05-1.77a7.54,7.54,0,0,1,2.21-1.83c1.4-.81,2.92-1.41,4.34-2.2A8.22,8.22,0,0,0,319.64,239.47Z"/><path d="M334.65,320l1.61.76-1.19.36c.13,1.53.47,2,1.6,1.82.44-.06.79-.29,1.07.26s0,.8-.31,1.11c-.08.07-.07.22-.12.46l1.1.75c-.11,1.07-2.1,2-3.13,1.44a3.06,3.06,0,0,1-1.62-2.34A6.56,6.56,0,0,1,334.65,320Z"/><path d="M313.6,274.89c-.78-.22-1.72-.22-1.89-.57-.52-1.14-1.39.15-2.12-.35-.27-.81-.53-1.63-.79-2.43.58-.54,1-1.24,1.91-.91a.84.84,0,0,0,.77-.26c.51-1.17,1.43-.74,2-.3a5.6,5.6,0,0,1,1.54,2.2c.38,1-.16,1.76-1.14,2.19C313.71,274.51,313.67,274.76,313.6,274.89Zm-.76-2.35a7,7,0,0,0-1.47-1.14c-.13-.06-.57.59-.86.92a8.53,8.53,0,0,0,1.41.92C312.05,273.3,312.4,272.89,312.84,272.54Z"/><path d="M233,436.73l.48,1.86c1.09-.12,1.39-.75,1.16-1.77l2.16.33c-.73.35-1.8.16-1.42,1.54l1.2.52c0,.14.12.28.08.37a31.66,31.66,0,0,1-1.37,3c-.46.81-1.07.83-1.58.07-.92-1.38-1.76-2.82-2.68-4.34Z"/><path d="M388.74,378c0-.55,0-1-.75-.93-.48.06-1,.15-1.6.25.4-3,1.12-5.7,3.58-8.1.2,1.4.39,2.4.48,3.41,0,.57.13,1.07-.7,1.46-.42.2-.48,1.52-.41,2.31a1.45,1.45,0,0,1-.65,1.56Z"/><path d="M247.9,328.86c-.49-1.29-.49-1.29-1.9-1l-.49-1.09h1.56c-.79-.59-1.33-.93-1.79-1.36a16.66,16.66,0,0,1-1.21-1.44l1-1.93.22,1,.93-.71a4.27,4.27,0,0,1,2.5,2.81C249.09,326.42,249.33,327.75,247.9,328.86Z"/><path d="M346,430.67l-2.31,3.06a5.83,5.83,0,0,0-1.9-.13c-.49.11-1.48.24-.75,1.5l-1.35-.5a2.23,2.23,0,0,1,.06-.56,16.33,16.33,0,0,1,1.17-2.89C342.21,429.13,343.78,429,346,430.67Z"/><path d="M273.58,229a7.63,7.63,0,0,1-.19,1.27,1,1,0,0,1-.56.55c-.46.14-1,.16-1.43.26a1.08,1.08,0,0,0-.75,1.79c.15.24.48.36.81.59l-2.14,2a5.16,5.16,0,0,1,.46-5.77C270.83,228.46,271.76,228.29,273.58,229Z"/><path d="M311.49,303.5a9.33,9.33,0,0,1,2.33,9.28,5.41,5.41,0,0,1-1.4-2.93,12.57,12.57,0,0,0-1.71-3.91C310.22,305.21,310.4,304.62,311.49,303.5Z"/><path d="M336.17,386.19c.83.21,1.31.5,1.49,1.3.29,1.37.34,1.36,1.95,1.25.22.63.47,1.31.7,2-1.6,1.64-3,1.51-4.13-.35C335.43,389.1,335.41,388.11,336.17,386.19Z"/><path d="M375.71,314c-.19,1-.38,2.08-.59,3.26h1.81c.08.7.16,1.41.25,2.23a3.25,3.25,0,0,1-3.65-1,2.25,2.25,0,0,1-.25-2.91C373.81,314.56,374.29,313.45,375.71,314Z"/><path d="M394,255.31c-2,1.34-3,3.34-5.44,3.36.07-1.5.14-3,.21-4.56.74-.24,1.33-.62,2,.19.28.34.93.38,1.42.53S393.15,255.1,394,255.31Z"/><path d="M320.81,451.48c-.49-.19-.83-.29-1.14-.45-1.41-.77-1.59-.76-2.83.26-.28.23-.5.58-.82.73a4.14,4.14,0,0,1-1.27.1,11.06,11.06,0,0,1,4.72-4.63c1-.51,1.77.15,1.65,1.32C321,449.65,320.92,450.48,320.81,451.48Z"/><path d="M230.14,268.34c1.68.06.92,1.46,1,2.13.08,2.22-1.88,4.56-4.35,5.36.3-.62.51-1.11.75-1.58.5-1,1.06-1.9,1.47-2.9.11-.28-.2-.74-.32-1.09Z"/><path d="M340.09,437.53l1,.77c1.39-1.11,2-1.34,4.23-1.54a9.09,9.09,0,0,1-3.72,4.67C340.58,440.5,340.43,440.11,340.09,437.53Z"/><path d="M320.06,342.66v-6.41a1.37,1.37,0,0,0,2.32.25l.86.77c-1,1.84-1.91,3.64-2.86,5.43Zm.77-5.09-.34.45,1,.52.21-.34Z"/><path d="M227.31,267.91c-.45.93-.82,1.71-1.27,2.66l.82,1.05-2,.66.35,1.25-.7.1c-.78-2.7.86-4.66,1.78-7,.64.6,2,0,1.8,1.58Z"/><path d="M364.35,242.36l-3-4.61c1.23-.65,1.25.91,2.1.84a25.14,25.14,0,0,1,2.62.1c-.4,1.29-.77,2.46-1.13,3.64Z"/><path d="M233.75,377a4.56,4.56,0,0,1,.82.22c1.18.55,1.31,1.41.31,2.29-.73.64-1.55,1.19-2.35,1.79-.79-1.38-.75-1.93.05-2.8C233,378.08,233.32,377.57,233.75,377Z"/><path d="M304.75,278.86c.66-3.09.73-2.92,2.64-2.8l-.33,1.36c.23.58,1.07.63,2.51,0-.09.41-.06.83-.23.94A7.54,7.54,0,0,1,304.75,278.86Z"/><path d="M253.41,237.47l-1.35,4.17A3.7,3.7,0,0,1,250,238.5c-.08-1.14.11-1.17,1.3-.81A6,6,0,0,0,253.41,237.47Z"/><path d="M221.14,306.31l1.48-1.05c.22.39.64.77.63,1.14,0,1.57-.25,1.85-2,2.9a6.13,6.13,0,0,1-.14-4.63Z"/><path d="M292.85,387.28v2.62l-1.44-.58c-.59-1.19-1.13-2.31-1.68-3.41C290.43,385.61,290.43,385.61,292.85,387.28Z"/><path d="M358.64,307.23c1.07-1.86-.53-2.91-1.53-4.49,1.49.08,2.72-.27,4.08.57a8.66,8.66,0,0,1-2.61,3.86Z"/><path d="M342.22,383.26c-2.59.44-1.92-1.73-2.74-2.69a6.64,6.64,0,0,1,.91-.85c.7-.43,1.14-.26,1.32.55S342,382.16,342.22,383.26Z"/><path d="M226.41,302.4a2.91,2.91,0,0,1-.85-.15,4.1,4.1,0,0,1-.78-.65c.23-.31.59-.57.6-.85a1.16,1.16,0,0,0-.45-.94,3.7,3.7,0,0,1-1.68-1.42C225.64,297.79,226.71,299.1,226.41,302.4Z"/><path d="M409.68,342.48c-1.54-.76-1.87-1.65-1.41-3.53C409.68,340.12,409.84,340.51,409.68,342.48Z"/><path d="M314.08,236.62l2.46-.53c.39,1.91.39,1.91-.64,2.58Z"/><path d="M272.44,240.48c-.35-1.92.16-2.86,1.77-3.55C274.32,238.41,273.29,239.23,272.44,240.48Z"/><path d="M340.75,288l1,1.91c1.33-.16,1.45,0,1.39,1.33C341.34,290.8,340.71,290,340.75,288Z"/><path d="M445,395.71l.6.8c-.52.87-1.85-.5-1.71,1.12-1.4-1.07-1.4-1.08-.91-2.81a10.25,10.25,0,0,0,.68,1.12c.46.57.91.47,1.35-.24Z"/><path d="M200.4,365c-1.83-.62-2.07-1.37-1-2.73Z"/><path d="M204.25,362.89l-1.83-.62c1.54-.8,1.56-.93.5-2l.85-.57Z"/><path d="M273.68,418.19l-1.6-2.46C274.14,416,274.39,416.33,273.68,418.19Z"/><path d="M290.79,291.69l2.42.58-.12,1C292.46,292.47,290.37,293.92,290.79,291.69Z"/><path d="M270.69,412.31c.54-.86.49-2,1.79-1.95l-.9,2.66Z"/><path d="M273.4,233.56l1.67.64c-.1.79-.31,1.33-1.2,1.44l-.43-2.12Z"/><path d="M217.22,363.22c-.7-.3-1.71-.27-1.69-1.67C216.31,362.12,217.24,362.11,217.22,363.22Z"/><path d="M324.09,341.76v1.84c-.47.31-.8.2-.93-.36S323,342,324.09,341.76Z"/><path d="M221.57,303.65l-1.14-1.47h1.68Z"/><path d="M271.86,442c.06,1.39,0,1.47-2,1.38Z"/><path d="M288.25,389c.25.6,1.38,1,.25,2.13l-.75-2Z"/><path d="M364.7,236.12c-.07-.41-.13-.83-.19-1.24l-.05.05,1.86.22.05.48-1.72.46Z"/><path d="M388.69,378l.89,1.49a1.19,1.19,0,0,1-1.43-.79c0-.13.38-.43.59-.66Z"/><path d="M324.1,335.76v-1.25c.3.08.54.07.61.17C325.08,335.26,325.1,335.71,324.1,335.76Z"/><path d="M342.36,168.52a2,2,0,0,1-.12-2.4C342.75,167,343.24,167.52,342.36,168.52Z"/><path d="M243.75,273c1.23-.26,1.23-.26,1.5,1.27Z"/><path d="M412.59,406l-.35,1.48-1.17-.51.05-.4Z"/><path d="M339.78,413.59l1.11.66C339.86,414.74,339.86,414.74,339.78,413.59Z"/><path d="M445.27,392.88c-.66.32-.8,1.55-2.12,1.15a2.91,2.91,0,0,1,2.12-1.15Z"/><path d="M253.78,235.49l-1.35.87c-.25-1.25.63-1,1-1.29Z"/><path d="M321.87,175.69c.39-.79.84-1.06,1.54-.26Z"/><path d="M271.82,380.28c.78-.48,1.26-.39,1.27.76Z"/><path d="M224.82,304.15c-.66.61-1,.33-1.48-.14C223.94,303.41,224.3,303.85,224.82,304.15Z"/><path d="M433.86,332.24l.09-2c.66,1.1.66,1.1-.14,1.95Z"/><path d="M273.44,233.52l-1.22-.3.83-.48c.12.27.24.54.35.82Z"/><path d="M337.6,250.34c.12-.29.16-.65.37-.83s.5.25.25.61a1.94,1.94,0,0,1-.23.26l-.13.13Z"/><path d="M341.12,165.71l-1,.91-.29-.3c.3-.31.6-.62.91-.92A2.81,2.81,0,0,1,341.12,165.71Z"/><path d="M274,384.34a4,4,0,0,1,.55.45.94.94,0,0,1-.25.35,5.06,5.06,0,0,1-.74-.36Z"/><path d="M316.45,183.1l.2-.87.89.5,0-.06-1.16.38Z"/><path d="M364.65,236.09c-.56.34-1.09.51-1.8-.35l1.84.38Z"/><path d="M291.88,391.91c.12.2.3.39.26.45a1.84,1.84,0,0,1-.43.4c-.06-.15-.18-.3-.16-.43S291.73,392.09,291.88,391.91Z"/><path d="M217.61,365.51v.83l-.34,0c0-.28,0-.55,0-.83Z"/><path d="M358.58,307.17l-1,1.25c0-1.26.5-1.23,1.05-1.19Z"/><path d="M292.11,287.65l-.37-.94.33-.16.49.88Z"/><path d="M383.48,193.1a7.57,7.57,0,0,1,.06,5.77,5.59,5.59,0,0,1-3.34,3,2.13,2.13,0,0,1-2.5-.66,6,6,0,0,1-.38-6.27c.37-.6.71-.94,1.41-.62s1.1-.13,1.3-.92a1.6,1.6,0,0,1-1.48-2c.57.43,1,1.28,1.82.63.16-.12.56,0,.82.08C381.91,192.4,382.62,192.73,383.48,193.1Z"/><path d="M382.13,191.83a2,2,0,0,1-.12-2.4C382.52,190.25,383,190.83,382.13,191.83Z"/><path d="M380.89,189l-1,.91-.3-.31c.3-.3.6-.61.92-.91C380.53,188.7,380.65,188.81,380.89,189Z"/><path class="cls-1" d="M209.71,140.6c24.26-4.22,120.44-6,138.26.07.46,2.58,1.16,5.45,1.47,8.37,2.22,20.94,1.89,41.91.41,62.87-1,14.44-1.94,28.88-3.4,43.28a161.57,161.57,0,0,1-4,21.3c-4.76,19.94-18.95,31.21-36.87,38.41-10.27,4.12-21.26,6.37-32.34,4.82-23-3.23-44.54-9.61-57.25-31.8a44.19,44.19,0,0,1-6-18.34c-.9-10.69-1.8-21.41-2-32.13-.32-17.77-.15-35.55-.06-53.33.06-11.76.27-23.53.57-35.29A66,66,0,0,1,209.71,140.6Z"/><path class="cls-2" d="M141.93,203.89h68.7a81.12,81.12,0,0,1,34.23,7.34,93.34,93.34,0,0,1,27.95,19.54,90.81,90.81,0,0,1,18.83,28.43,87.66,87.66,0,0,1,.12,67.75,90.29,90.29,0,0,1-18.71,28.54,92.25,92.25,0,0,1-28,19.67,81.68,81.68,0,0,1-34.47,7.34h-68.7Z"/></svg>