<svg id="Layer_1" data-name="Layer 1" xmlns="http://www.w3.org/2000/svg" viewBox="0 0 595.28 595.28"><path d="M88.46,254.48c1.56,4.23,2.92,8.42,2.51,12.81A85.59,85.59,0,0,1,89,277a3.12,3.12,0,0,1-.69,1.17c-1.31,1.67-2.81,3.21-5.15,2.81A5.18,5.18,0,0,1,79,276.52a21.65,21.65,0,0,1-.23-7.09,28.46,28.46,0,0,1,6.18-13.24C85.73,255.15,86.51,253.85,88.46,254.48Z"/><path d="M403.69,209.45c.66,3.55,1.42,6.75,1.78,10a24.23,24.23,0,0,1-.2,6.75c-.68,3.86-2.83,5.63-7.07,6.45-3.69.72-6.53-1.87-6.54-5.64a10.39,10.39,0,0,1,.47-3.38A28.62,28.62,0,0,1,402,210,7.26,7.26,0,0,1,403.69,209.45Z"/><path d="M369.89,359.57l-1.71.76c1.65,3.93-1.27,6-3.2,8.34a10.82,10.82,0,0,1-3.17,2.84,18.23,18.23,0,0,1-4.32,1.08c.13-1.67-1.34-1.67-2.6-1.88.88-2.31-1-4.34-.16-6.65a51.19,51.19,0,0,0,1.48-6.7c.52-2.33,1.11-4.63,2.59-6.13,1.36.52,2.74,1.5,3.29,1.16.94-.59,1.35-2,2.15-3.37a7.33,7.33,0,0,1,5.91,5.32c.37,1.13,1.16,2.34-.43,3.34C369.48,357.83,369.81,358.89,369.89,359.57Zm-8-5.15a63,63,0,0,0,4.48,4.8c.36.32,1.55-.28,2.93-.58-1.8-1.94-3.77-3.15-3.18-5.7.13-.52-.74-1.27-1.2-2Z"/><path d="M209.83,81.69c1,7.56.27,13.92-2.54,20a8.84,8.84,0,0,1-6.45,5.19c-3,.6-5.32-1.6-4.6-4.52a29.2,29.2,0,0,1,1.44-3.19c.34-.95.94-2.13.65-2.92-.73-2,.19-3.36,1.3-4.66q3.31-3.93,6.83-7.67A20.74,20.74,0,0,1,209.83,81.69Z"/><path d="M364.59,103.37c-2.6-.43-4.47-2-6.57-3.08-3.54-1.76-6.71-4-8.71-7.54A19.27,19.27,0,0,1,347.94,90c-.58-1.63-1.37-3.67.13-4.83s3-3.11,5.58-2.64c2.86.53,5.16,1.49,6.57,4.3a49.91,49.91,0,0,1,4.57,15.06A5.94,5.94,0,0,1,364.59,103.37Z"/><path d="M238.85,391.75a25.57,25.57,0,0,1-.92-3.47c-.58-5.32-.33-10.53,2.91-15.1,2.32-3.27,5.53-4,8.61-2.07,3.41,2.12,4.23,5.2,2.32,8.82C249,385.28,244.48,388.81,238.85,391.75Z"/><path d="M437.18,258.79c0-2.12-.17-4.26,0-6.36a63.84,63.84,0,0,1,1.48-10.15c1-3.85,3.45-5.64,6.64-5.24a8,8,0,0,1,6.23,4.21,5.4,5.4,0,0,1,.17,3.58,13.64,13.64,0,0,1-2,4c-3,4.43-7.35,7.39-11.64,10.38Z"/><path d="M50.25,311.94c.31-2.81.53-5.07.82-7.33a4.91,4.91,0,0,1,.6-2.28,6.8,6.8,0,0,1,2.6-2.33c.4-.16,1.57,1.05,2.1,1.83,3.14,4.63,4.44,10,5.61,15.33a8.32,8.32,0,0,1-.82,4.93,4.52,4.52,0,0,1-7.87.93,16.09,16.09,0,0,1-2.62-5.82A25.42,25.42,0,0,1,50.25,311.94Z"/><path d="M338.93,376.48c.35.66.74,1,.74,1.43.09,6.49-1.32,12.47-6.11,17.23a8.51,8.51,0,0,1-1.3,1.1c-2.09,1.38-5.56,1.4-7.13.08a6.2,6.2,0,0,1-1.31-6.67,12.31,12.31,0,0,1,2-3.6A31.76,31.76,0,0,1,338.93,376.48Z"/><path d="M380.64,494.24l-2.53-.44c-3.55-.56-4.93-3-3.23-6.19a13.77,13.77,0,0,1,3.2-4,28.65,28.65,0,0,1,10.72-6c3.61-1,5.26.5,4.21,4-1.69,5.71-4.66,10.46-10.88,12.23-.33.09-.65.22-1,.3A2.24,2.24,0,0,1,380.64,494.24Z"/><path d="M309.8,237.33c.48.5.86.71.92,1,1.06,5.35,2.69,10.66,1.29,16.22a9.08,9.08,0,0,1-7.32,7.09c-.16-.16-.48-.37-.45-.47.83-2.53-.31-4.34-2.07-6s-2.14-3.76-1-6.16A35.9,35.9,0,0,1,309.8,237.33Z"/><path d="M464.74,292.82l1.94,1.82c4.39-1.64,2.13-4.53,1-7.4a17.57,17.57,0,0,1,2.52-.35c2.59,0,3-.49,2-3-1.07-2.9-1-3,2.72-4.58a4.47,4.47,0,0,1,1.81,4.06,8,8,0,0,0,.75,3.54c3,6-.65,12.66-4.93,15.27-2.74,1.67-7.92.16-7.33-4.38C465.4,296.45,465,295,464.74,292.82Z"/><path d="M342,34.33c1.1,3.34,1.81,6.94.1,10.68a10.29,10.29,0,0,1-6.19,5.59,3.94,3.94,0,0,1-4.63-1.21c-2.41-2.8-2.67-8.45-.69-11.62.68-1.11,1.31-1.73,2.6-1.15,1.56.71,2-.24,2.42-1.71-1.88-.29-3-1.31-2.75-3.7,1.06.8,1.83,2.37,3.38,1.18.3-.23,1,0,1.51.14C339.06,33,340.36,33.64,342,34.33Z"/><path d="M288.57,481.46c-3.12-4.38-6.07-8.29-7.76-13a7.62,7.62,0,0,1-.32-2c-.25-3.71,1.09-6.06,3.65-6.44,4.11-.63,7.91,1.59,8.4,5.25A20.92,20.92,0,0,1,288.57,481.46Z"/><path d="M165.65,435.64c.27-1,.21-2.75,1-3.42,1.31-1.06,2.82.28,4,1.06,2.92,2,6.34,3.32,8.18,6.6a18.37,18.37,0,0,1,1.9,4c.58,2.17.57,4.31-1.63,5.82s-3.71,1.54-6.3-.24C168.14,446.2,166.26,441.46,165.65,435.64Z"/><path d="M171,512.31a20.66,20.66,0,0,1-4.35-10,21.37,21.37,0,0,1,.09-6.77c.7-4.45,5.53-6,8.8-2.84a7.63,7.63,0,0,1,2.23,4.42C178.25,503.17,175.79,508.12,171,512.31Z"/><path d="M256.38,145.44c2.23,6.52,4.41,12.15,1.83,18.34-1.3,3.12-3.39,4.73-6.43,4.77-1.62,0-2.76-.6-3.09-2.12a15.41,15.41,0,0,1-.56-5.4C249.06,155.23,252,150.4,256.38,145.44Z"/><path d="M321.06,101.24a21.64,21.64,0,0,1,1,4.31c0,4,0,8-.31,11.91a9.17,9.17,0,0,1-1.82,4,4.25,4.25,0,0,1-7.89-1.31c-.88-3-1.07-6.28.57-9a98.88,98.88,0,0,1,6.71-9C319.56,101.79,320.09,101.7,321.06,101.24Z"/><path d="M280.66,501.66c5.07,3.41,9.37,6.38,11,11.84.88,2.89.5,5.39-2,7.39-1.91,1.56-3.59,1.53-5.51-.09-2.52-2.11-3.48-5.07-4.26-8a32.78,32.78,0,0,1-1.16-7.41C278.75,504.25,279.87,503.12,280.66,501.66Z"/><path d="M137.07,461.34a5,5,0,0,1,.61,1c2.08,6.62,2.12,13-2,19a11,11,0,0,1-1.34,1.56c-1.79,1.64-3.67,1.5-4.79-.69a10.28,10.28,0,0,1-1.39-5.18,23.47,23.47,0,0,1,6.74-14.26A11.26,11.26,0,0,1,137.07,461.34Z"/><path d="M233,202c1.72,2.27,3.51,4.33,5,6.6,1.61,2.49,1.8,5.38,1.66,8.3-.08,1.68-.38,3.31-2.11,4a4.62,4.62,0,0,1-4.84-.88,13.66,13.66,0,0,1-4.78-7.37c-.52-2.43-.61-4.95-.92-7.65Z"/><path d="M293.5,58.29c.81-.58,1.67-1.11,2.43-1.75s1.81-1.31,1.79-1.94c-.11-2.43,1.49-2,3.12-2.09.32-1.9.88-3.77,3.78-3.62.11,5.11,0,10.17-2.41,14.89A12.59,12.59,0,0,1,296,69.41a11.67,11.67,0,0,1-2.88.45l.65-2.8-2.6.57c-1.69-2.95-1.23-5.81.35-8.65l-.09-.1c0,.8-.09,1.8,1.11,1.66,1.52-.17,1.25-1.32,1.05-2.36Z"/><path d="M480.91,421.53c1.5,6.19-1.22,13.73-6.16,17a8.39,8.39,0,0,1-3.09,1.33c-2.64.45-4.07-.76-4.38-3.45a8.79,8.79,0,0,1-.12-1.35c.17-4.88,7.58-13,12.47-13.73A4.59,4.59,0,0,1,480.91,421.53Z"/><path d="M205.45,281.8c-.84-1-1.79-1.62-1.77-2.19a15,15,0,0,1,3.22-9.23,6.08,6.08,0,0,1,6.48-2,5.91,5.91,0,0,1,3.65,6,8.72,8.72,0,0,1-2.42,5.92,54.67,54.67,0,0,1-5.7,4.92c-.76.61-1.59,1.22-2.78.48s-1.11-1.86-1-3A3.59,3.59,0,0,1,205.45,281.8Z"/><path d="M239.63,506.19c4.22,4.4,7.9,8.63,8.86,14.56a7.6,7.6,0,0,1,0,2.38c-.39,2.21-2.35,4.49-4.08,4.62a4.78,4.78,0,0,1-4.73-2.8,15.35,15.35,0,0,1-1.87-5.06A24.06,24.06,0,0,1,239.63,506.19Z"/><path d="M508.86,335.12c.72.74.66,1.48-.22,1.95-1.26.66-1.31,1.39-1,2.77.26,1.14-.54,2.52-1,4.26l1.88,2.6c-.6,3.53-2.52,5.45-5.63,5.6a5.06,5.06,0,0,1-5.5-4.15,10.7,10.7,0,0,1,.14-4.71,28.44,28.44,0,0,1,6.78-11.79c1.25.34,1.89,1.08,1.49,2.25a1.61,1.61,0,0,0,.9,2.22c1.22.72,1.58-.38,2.22-.91Z"/><path d="M275.17,418.58c5.41.78,10,2.57,13.61,6.32a12.1,12.1,0,0,1,2.07,3.89,3.74,3.74,0,0,1-.93,4.41,4.55,4.55,0,0,1-4.77,1.09,8.16,8.16,0,0,1-3-1.61C278.36,429,275.05,424.92,275.17,418.58Z"/><path d="M272.38,373c3.84,1.83,7.75,3.17,10.56,6.38a10,10,0,0,1,2.89,7.1,4.73,4.73,0,0,1-.11,1.36c-.68,1.9-1.78,3.65-3.78,4.12s-2.93-1.64-3.7-3c-1.06-1.85-1.9-3.68-4.13-4.41a1.92,1.92,0,0,1-1-1.28c-.57-3-1.06-6-1.52-9.05C271.56,374,271.93,373.64,272.38,373Z"/><path d="M419.58,354.06V359c-.56.67-1.61,1.36-1.67,2.13s.81,1.71,1.28,2.57c-2.25,3.74-6.34,6.55-11.93,8.15-1.44-1.89-.59-4-.1-5.82a45.8,45.8,0,0,1,3.45-8.55,10.79,10.79,0,0,1,3.22-3.48c1.14-.84,2.53-1.68,4-.17C418.16,354.19,419.06,354,419.58,354.06Z"/><path d="M530.07,447.52q-.41-3.9,3.92-4.77a11.7,11.7,0,0,0,2.59-.65c2.49-1.18,2.47-1.22,5-.29l3.35-2.2c.9,6.15-5.63,14.6-12.79,16.75.07-1,.14-2,.21-3l-2.73-.61h0c1-.41,1.8-.7,1-2.12-.5-.84-.37-2.06-.52-3.11Z"/><path d="M112.06,437.55c-.09,2.39-.68,4.61-3,5.51s-4.32-.69-5.68-2.36c-3.07-3.76-3.59-8.34-3.19-13,.17-2,1.26-2.56,2.82-1.74,3.5,1.83,6.73,4.05,8.23,8A22.83,22.83,0,0,1,112.06,437.55Z"/><path d="M181.82,194.7c1.61-.88,3.07-1.34,3.3-3a2.6,2.6,0,0,1,2-.31,55.93,55.93,0,0,1,7.49,4.2,7.66,7.66,0,0,1,2.42,9c-.87,2.31-2.21,3-4.55,2.13-3.76-1.41-5.85-4.63-8-7.74a1.81,1.81,0,0,1,0-1.28C185.38,194.64,185.4,194.65,181.82,194.7Zm4.63,1.44.88.29c.12-.54.25-1.07.34-1.61a1.65,1.65,0,0,0-.57-.18C186.86,195.13,186.66,195.64,186.45,196.14Z"/><path d="M135.69,366a37,37,0,0,1,5.52-.45,8.57,8.57,0,0,1,3.33,1.34c1.88,1.05,3.69,2.22,5.73,3.46l-.21,3.13c.4,1,2.48.6,2,2.34-.4,1.54-1.66,2.09-3,2.51a2.53,2.53,0,0,1-.68.07c-3.56.08-6.26-1.89-9.06-3.69C136.31,372.75,135.28,369.94,135.69,366Z"/><path d="M407.59,448.86l9.21,4.08a4.86,4.86,0,0,1,3.05,3.47c.07.32.37.73.26.93-.62,1.14-1.87,2-.31,3.54.73.7.8,2.09,1.26,3.41l-3.18.51L418,467c-.42.1-.71.27-.83.19-6-3.73-8.68-9.54-10.2-16.07C406.87,450.59,407.31,449.9,407.59,448.86Z"/><path d="M452.5,139v4.64c-1.76,2.2-4.35,1.65-6.74.33a26.58,26.58,0,0,1-12.14-13.09,39.13,39.13,0,0,1,4.83-.75,3.23,3.23,0,0,1,2.22,1,2.55,2.55,0,0,0,3.39.72c.4,2.14.83,4.23,3.57,4.49a1.13,1.13,0,0,1,.77.61C449.17,138.92,450.86,139.09,452.5,139Z"/><path d="M470.25,470.33c.19-1.2.82-1.91,2.1-1.7,4.43.72,6.62,2.91,5.94,7.52a31.52,31.52,0,0,1-2.6,8.12c-1.19,2.67-2.88,5.13-4.67,8.25-.69-2.13-3-3-1.64-5.26.1-.17-.52-.88-.92-1.21-.91-.76-1.34-1.65-.46-2.59,1-1.12,1.49.2,2.13.7a2.36,2.36,0,0,0,.63.24,1.58,1.58,0,0,0,.49-2.61c-1.77-2.2-1.08-5.11-2.43-7.39.21.08.43.17.65.23.83.25,1.83,1,2.34-.26a3.17,3.17,0,0,0-.23-2.12A10.3,10.3,0,0,0,470.25,470.33Z"/><path d="M164.66,277.92c-2.36-.18-2.21,1.9-2.6,3.38-4.18-.29-5.24-1.16-5.35-4.73a11,11,0,0,1,.82-4.3c1.43-3.49,6.76-8.06,11.25-9.68-.25,3.17,1.23,6.11-1.31,9.08-1,1.12-1.26,2.86-2.76,3.83C164.37,275.73,164.66,276.94,164.66,277.92Z"/><path d="M337,480.91c-1.32,1-2.26,1.78-3.27,2.44s-2.36,1.39-3.74,2.19a21.64,21.64,0,0,1-8.51-11.42c6.2-.76,11.88-.66,16.8,3.36,1.47,1.2,1.63,2.59.31,3.38A2.71,2.71,0,0,1,337,480.91Z"/><path d="M124.3,326.22c-.15.72-.34,2.07-.72,3.38-.68,2.39-2.36,3.09-4.71,2.08-3.89-1.68-6.78-8.67-5.2-12.57a3.08,3.08,0,0,1,2.88-2,7.4,7.4,0,0,1,7.6,6.45C124.26,324.19,124.23,324.89,124.3,326.22Z"/><path d="M484.92,209.36c-1.32-1.53-3.23-2.32-3.92-4.72a5.4,5.4,0,0,0,1.18.61c.6.1,1.2.12,1.81.18,0-.63.28-1.41,0-1.85a31.18,31.18,0,0,0-2.55-3.14c.07-1.49.1-2.94.21-4.38a3,3,0,0,1,.44-1.58,27.14,27.14,0,0,1,2.28-2.27,10.27,10.27,0,0,1,1.72,2.37,105.61,105.61,0,0,1,3.65,11.4c1.09,4.77-.45,7.77-4.62,10.16C483.89,213.85,482.45,211.67,484.92,209.36Z"/><path d="M197.31,313.13c2.78,1.28,4.16,3.81,5.47,6.29,1.44,2.74,2.67,5.61,1.48,8.82a9.48,9.48,0,0,1-.69,1.56c-1.68,2.82-4,3-6,.37a6.9,6.9,0,0,1-1.15-2.09,24.56,24.56,0,0,1,0-14.16C196.59,313.64,197,313.45,197.31,313.13Z"/><path d="M499.3,398.59l1.89-1,1.69,2.55c2-2.31.69-4.26.07-6.8l-1.43,2L500,392.82c1.2-.11,2.14-.49,2.78-.2,3.75,1.64,7.06,4,8.71,7.84a14.77,14.77,0,0,1,1,5.65c0,3.38-4.07,6.79-7.67,3.6.13-1,.62-2.15.33-3.06S503.75,405,502.9,404l1.11-1.51Z"/><path d="M427.09,507l-1.94-1.43,4.61-6.74a15,15,0,0,1,5.21,12,4.78,4.78,0,0,1-.54,2.29c-1,1.48-1.84,3.65-4,3.17s-4.33-1-5.17-3.44C424.56,510.75,424.39,508.74,427.09,507Z"/><path d="M345.67,256c-1.69-1.31-2-2.79-.64-4.59-1.29-.83-2.39-1.55-3.52-2.23-.84-.51-2.23-.76-1.73-2.08.28-.76,1.31-1.24,2-1.85-.54-.34-1.54-.64-1.77-1.23a2.53,2.53,0,0,1,.69-2.12,39.42,39.42,0,0,1,5.31-4.79c1.62-1.14,2.85-.47,3.19,1.49.75,4.43,1.18,8.85-1.12,13.29l-1.34-.6C344.94,252.43,345,254.08,345.67,256Z"/><path d="M358.24,282.81,362,286.9l-2.25.15a11.14,11.14,0,0,0-.3,3c.17,1.19,1.51,1.1,2.34,1.58,1.11.63,1.82,1.95,2.81,3.1-1.95,2.43-4.57,3.52-7.29,4.29-1.74.5-3.38-.71-4.31-2.68a10,10,0,0,1,1.71-10.89,13.66,13.66,0,0,1,1.81-1.58C357,283.51,357.6,283.21,358.24,282.81Z"/><path d="M174.54,147.53c-2.15,1.38-4.14,2.77-3.47,5.78.07.3-.27.77-.53,1.08-.66.77-1.38,1.49-2.26,2.44l-2-1.71-1.89,1.31a2.8,2.8,0,0,1-.62-.72,35,35,0,0,1-1.89-5.15c-.81-3.67,1.61-7.52,5-7.74a8.43,8.43,0,0,1,6.7,2.94A9.58,9.58,0,0,1,174.54,147.53Z"/><path d="M131.44,524.14a10.58,10.58,0,0,1,.73-7.45c1.18-2.57,3.57-3.42,6.3-2.4,3.92,1.46,5.4,3.52,6,8.53-1.94.16-4.38-.89-5.48,1.77,0,.12-.42.15-.64.13C136,524.54,133.67,524.33,131.44,524.14Z"/><path d="M82.14,329.05c3.59.63,4.71,1.58,5.13,4.59.27,2,.39,3.93,3,4.35.31.05.62.63.75,1s.22,1.24.08,1.3c-2.5,1.07,0,3.57-1.48,5s-3,1.53-4.49.12a6.38,6.38,0,0,1-.66-.8C81.6,340.87,80.53,333.89,82.14,329.05Z"/><path d="M382.57,418.43l1.86,3.15,2.82-1.58a31.11,31.11,0,0,1-10.56,16.56c-1.82-3.65-1.57-7.06-1.19-10.46a1.9,1.9,0,0,1,.84-1.4A8.46,8.46,0,0,0,382.57,418.43Z"/><path d="M234.74,327.1a3.14,3.14,0,0,0,4.23-.94c2,.9,1.25,2.64,1.29,4,.05,1.69.27,3,2.58,3.08a13.26,13.26,0,0,1-6.35,5.1c-2.47-2.79-2.75-2.9-6.09-2.47.65-4,.64-8.08,3.63-11.68C234.34,325.42,234.56,326.33,234.74,327.1Z"/><path d="M336.58,185.78c4.13,4.21,4.82,5.79,4.45,9.87-.94,1.79-4.72.88-4,3.93l-5.14-.58c-2.2-3.87-2.2-4.22.25-6.88L330.29,190c1.26.35,1.93.78,2.45.64a4,4,0,0,0,2.09-1.29A23.07,23.07,0,0,0,336.58,185.78Z"/><path d="M212.14,438.15l-5,7.17c-2.89-3.49-4.87-11-4.43-16.35,2.1.49,4.28.6,5,3.28.09.35.55.67.91.89,1.32.83,2.53,1.65,2,3.58C210.46,436.94,211.3,437.42,212.14,438.15Z"/><path d="M409.37,308.9a11.66,11.66,0,0,1,0-1.73c.33-1.74-.47-2.23-2.05-2a18.59,18.59,0,0,1-2.95.37c-.36,0-.72-.48-1.68-1.19l4.35-.54a15.38,15.38,0,0,1-.5-3.77c.14-1.4-.23-2.19-1.91-2.52,2-1.93,4.25-2.13,6.35-2.45C417.52,300.28,416,304,409.37,308.9Z"/><path d="M453.27,349c2.68,1.57,3.57,4.33,4.93,6.76.85,1.52-.06,2.37-1.41,3.27l2.82,1.86c-1.67,2.58-4.17,4-7,5.81C452.37,360.48,449.91,354.69,453.27,349Z"/><path d="M190.93,379.12l2.11,2.93c.35,1.27-1.56,1.74-.92,3.62s1.19,2.78,3.23,3.55c4.48,1.67,5.71,2,1.9,7.27-2.15-.1-3.4-3.55-6-1.53-2.13-3.08-3.2-6.12-2.61-9.61.23-1.4-.08-3.06,2-3.42C190.87,381.9,190.83,380.47,190.93,379.12Z"/><path d="M240.87,125.13c2.94-.93,3.4-4.31,6.35-4.81.24,0,.56-.52.57-.8.07-2.09,1.06-3,3.2-3.08.57,0,1.68-1.12,1.59-1.44-.8-2.8,3.12-3.77,2.45-6.61-.11-.47,1.82-1.43,2.81-2.17,2.37,3.66,2.39,4.91.14,7.86-4.14,5.44-9.82,8.76-16,11.37C241.84,125.52,241.59,125.35,240.87,125.13Z"/><path d="M284.53,302.42c-2,2.47-2.44-.63-4.13-.75.34,1.05.56,1.76.77,2.44-3.41.6-3.75.47-4.85-2.47-1.7-4.51-1-8.76,1.79-13.05l3.34,3.93-.83,1.54C282,296.9,283.22,299.63,284.53,302.42Z"/><path d="M380.49,154.89c-2.38-.29-3.92-2.55-6.54-2.57-1.06,0-1.77-1.55-1.48-3,.8-4.13,4.87-5.79,8.78-3.2a8.46,8.46,0,0,1,4,7.64c-2.17-2.37-2.65-2.34-4.1.12-.24.39-.5.77-.75,1.15Z"/><path d="M211.42,479.94c.73-3.31.09-4.19-2.54-3.32-2,.66-3.54-.08-5.35-.66a6.35,6.35,0,0,1,2.68-5.3,5,5,0,0,1,7.42,1.37c1.54,2.51,1.87,5,1.18,9.63-.63-.34-1.15-.63-1.69-.9S212.1,480.26,211.42,479.94Z"/><path d="M335.28,318.48c-.28-1.58-.43-2.41-.62-3.5l-3.58.43c.48-1,.87-1.84,1.22-2.57-1.48-1.7-2.9-3.36-4.63-5.36a34.61,34.61,0,0,1,4.58-4.44c2.24-1.52,3.67-.85,4.2,1.79A22,22,0,0,1,335.28,318.48Z"/><path d="M438,191l-8.87-10c2.92-3.16,6.92-3.39,10-.64C441.33,182.37,440.93,187,438,191Z"/><path d="M286.81,560.14c1.32,2.18,3.52,1.15,5.54,2.32l2.84-4.13.91,3,2.28.32a11,11,0,0,1-4.06,5.91c-2.15,1.73-4.79,2-6.65.73s-2.42-3.32-1.72-6.16A14.83,14.83,0,0,1,286.81,560.14Z"/><path d="M202.37,535.39c3.17-4.81,6.93-8,13.31-8.68-1.16,3.56-2.11,6.53-3.12,9.48-.09.27-.7.64-.71.63-1.31-1.36-2.83.95-4.42-.43C206.41,535.51,204.43,535.74,202.37,535.39Z"/><path d="M242.57,258.22c-1.84.69-2.88.09-3.57-1.61a13.84,13.84,0,0,1-.67-8.13c.78-3.77,4.49-5,9-3-.09.8-.18,1.67-.29,2.75-1.21-.33-2.43-.8-3.27.48-.53.81-1.53,1.64-1.47,2.4s1.35,1.14,2.39,1.91Z"/><path d="M164.2,227c.15-1.24.3-2.48.52-4.32.72.9,1.4,1.37,1.53,2a46.54,46.54,0,0,1,1.21,7.38,37.76,37.76,0,0,1-.63,6.06c-3.86.41-5.39-.53-7.07-4.39l2.92-2.65c.4-1.8-1.17-2.16-2.66-3l4.25-1.16c1.19.86,1.19.86,1.66-1.1Z"/><path d="M297.39,163.39c-.2,5.6-8.91,13.4-14.95,13.13,0-1.13-.45-2.59.09-3.28a14,14,0,0,1,4.09-3.4c2.6-1.49,5.41-2.61,8-4.06A16.08,16.08,0,0,0,297.39,163.39Z"/><path d="M325.19,312.56l3,1.4-2.19.67c.24,2.83.86,3.64,3,3.37.82-.1,1.46-.54,2,.48s0,1.48-.58,2.06c-.14.12-.12.41-.22.84l2,1.41c-.2,2-3.88,3.61-5.79,2.65a5.63,5.63,0,0,1-3-4.33C322.86,318.3,323.37,315.87,325.19,312.56Z"/><path d="M286.19,229c-1.44-.41-3.18-.4-3.48-1.06-1-2.1-2.59.29-3.95-.65-.48-1.5-1-3-1.45-4.5,1.08-1,1.8-2.29,3.54-1.69a1.54,1.54,0,0,0,1.42-.47c1-2.17,2.64-1.37,3.63-.55a10.27,10.27,0,0,1,2.85,4.07c.7,1.83-.29,3.25-2.11,4.05C286.41,228.29,286.33,228.74,286.19,229Zm-1.39-4.35a13.36,13.36,0,0,0-2.73-2.12c-.24-.11-1.05,1.11-1.6,1.71a16.73,16.73,0,0,0,2.61,1.71C283.33,226.05,284,225.29,284.8,224.64Z"/><path d="M136.9,528.74c.4,1.57.63,2.48.88,3.44,2-.22,2.57-1.38,2.15-3.27l4,.61c-1.35.64-3.33.3-2.62,2.86l2.22,1c.06.26.22.53.15.69a57.63,57.63,0,0,1-2.55,5.59c-.84,1.51-2,1.55-2.92.14-1.71-2.56-3.25-5.24-5-8Z"/><path d="M425.38,420c.07-1,0-1.89-1.4-1.72-.89.11-1.77.26-3,.45.74-5.58,2.08-10.55,6.63-15,.38,2.6.72,4.45.89,6.32.09,1.05.25,2-1.29,2.7-.78.37-.89,2.82-.77,4.28a2.71,2.71,0,0,1-1.19,2.89Z"/><path d="M164.52,328.94c-.91-2.38-.91-2.38-3.54-1.78l-.89-2H163a39.51,39.51,0,0,1-3.31-2.51,26.77,26.77,0,0,1-2.25-2.67l1.89-3.58c.12.55.23,1.06.41,1.87l1.72-1.31a7.89,7.89,0,0,1,4.62,5.21C166.72,324.43,167.17,326.89,164.52,328.94Z"/><path d="M346.26,517.51,342,523.18a10.79,10.79,0,0,0-3.52-.24c-.9.21-2.73.44-1.38,2.78l-2.51-.93a4,4,0,0,1,.12-1,30.94,30.94,0,0,1,2.17-5.34C339.19,514.67,342.1,514.35,346.26,517.51Z"/><path d="M212.07,144a12.93,12.93,0,0,1-.35,2.35,1.84,1.84,0,0,1-1,1,25.76,25.76,0,0,1-2.65.48c-1.79.39-2.38,1.75-1.39,3.32.27.44.89.66,1.49,1.08l-4,3.73a9.62,9.62,0,0,1,.86-10.7C207,143,208.7,142.68,212.07,144Z"/><path d="M282.28,282c4.68,5.26,6,10.4,4.33,17.2-1.75-1.52-2.08-3.61-2.6-5.44a23.38,23.38,0,0,0-3.16-7.24C280,285.15,280.27,284.05,282.28,282Z"/><path d="M328,435.13c1.53.39,2.43.92,2.75,2.41.55,2.53.64,2.52,3.62,2.31.42,1.18.87,2.44,1.3,3.67-3,3-5.62,2.8-7.65-.65C326.63,440.52,326.6,438.7,328,435.13Z"/><path d="M401.24,301.48c-.35,1.93-.7,3.86-1.11,6h3.37c.14,1.3.29,2.62.47,4.13-2.84,1-4.92-.1-6.77-1.95-1.65-1.64-1.47-3.5-.46-5.38S398.61,300.41,401.24,301.48Z"/><path d="M435.06,192.73c-3.66,2.48-5.51,6.18-10.08,6.22.13-2.78.26-5.53.4-8.45,1.36-.44,2.45-1.14,3.69.35.53.63,1.73.71,2.64,1S433.54,192.33,435.06,192.73Z"/><path d="M299.55,556.07a22.32,22.32,0,0,1-2.1-.85c-2.63-1.41-3-1.4-5.25.49-.53.43-.93,1.07-1.51,1.35a8.13,8.13,0,0,1-2.36.2,20.46,20.46,0,0,1,8.74-8.59c1.9-.94,3.29.28,3.05,2.45C300,552.67,299.76,554.21,299.55,556.07Z"/><path d="M131.61,216.85c3.12.12,1.72,2.71,1.76,4,.15,4.12-3.47,8.45-8.06,9.94.56-1.17,1-2.06,1.4-2.94.92-1.78,2-3.52,2.72-5.36.21-.52-.38-1.37-.58-2Z"/><path d="M335.27,530.23l1.83,1.43c2.58-2.07,3.69-2.48,7.83-2.86a16.85,16.85,0,0,1-6.88,8.65C336.16,535.73,335.88,535,335.27,530.23Z"/><path d="M298.17,354.51V342.64c1.4,1.86,2.88,1.83,4.3.45.66.6,1.16,1,1.59,1.44l-5.3,10.06Zm1.42-9.43-.63.83,1.8,1,.38-.63Z"/><path d="M126.37,216.06c-.83,1.73-1.51,3.16-2.36,4.92l1.53,2-3.74,1.22.65,2.32-1.31.19c-1.43-5,1.61-8.63,3.3-13,1.19,1.11,3.75-.1,3.35,2.92Z"/><path d="M380.19,168.73l-5.49-8.54c2.26-1.19,2.3,1.7,3.88,1.57a42.83,42.83,0,0,1,4.85.19c-.74,2.38-1.42,4.56-2.09,6.73Z"/><path d="M138.3,418.14a8.53,8.53,0,0,1,1.52.43c2.18,1,2.43,2.59.58,4.22-1.36,1.2-2.88,2.21-4.35,3.33-1.48-2.56-1.4-3.58.08-5.19C136.88,420.11,137.5,419.18,138.3,418.14Z"/><path d="M269.81,236.35c1.22-5.74,1.35-5.42,4.89-5.19-.21.86-.4,1.67-.61,2.51.42,1.09,2,1.17,4.64,0-.17.75-.1,1.52-.42,1.74C276.7,236.53,272.09,237,269.81,236.35Z"/><path d="M174.72,159.68c-.84,2.59-1.63,5-2.5,7.73a6.84,6.84,0,0,1-3.79-5.82c-.16-2.12.19-2.17,2.4-1.5C171.86,160.4,173.14,159.88,174.72,159.68Z"/><path d="M114.94,287.18l2.74-1.93c.43.71,1.19,1.41,1.18,2.1,0,2.9-.46,3.42-3.66,5.37-1.35-2.81-1.14-5.65-.26-8.57Z"/><path d="M247.77,437.15V442l-2.68-1.09-3.1-6.31C243.29,434.06,243.29,434.06,247.77,437.15Z"/><path d="M369.62,288.88c2-3.43-1-5.39-2.84-8.31,2.76.15,5.05-.49,7.57,1.05a16.06,16.06,0,0,1-4.85,7.15Z"/><path d="M339.2,429.71c-4.79.81-3.56-3.2-5.07-5a11.88,11.88,0,0,1,1.69-1.57c1.3-.81,2.11-.49,2.45,1C338.66,425.89,338.87,427.67,339.2,429.71Z"/><path d="M124.72,279.94a5.75,5.75,0,0,1-1.59-.27,8,8,0,0,1-1.44-1.22c.43-.56,1.08-1.05,1.11-1.57a2.15,2.15,0,0,0-.83-1.74,6.8,6.8,0,0,1-3.11-2.63C123.29,271.4,125.26,273.84,124.72,279.94Z"/><path d="M464.15,354.17c-2.86-1.4-3.47-3.05-2.61-6.53C464.15,349.81,464.45,350.53,464.15,354.17Z"/><path d="M287.1,158.1l4.54-1c.73,3.54.73,3.54-1.17,4.77Z"/><path d="M210,165.25c-.66-3.56.29-5.3,3.28-6.57C213.45,161.42,211.55,162.94,210,165.25Z"/><path d="M336.48,253.18c.74,1.47,1.28,2.52,1.8,3.54,2.47-.29,2.68-.08,2.57,2.46C337.59,258.46,336.42,257,336.48,253.18Z"/><path d="M529.63,452.76l1.11,1.48c-1,1.62-3.42-.91-3.16,2.08-2.59-2-2.6-2-1.7-5.2a20.5,20.5,0,0,0,1.27,2.08c.84,1,1.67.87,2.5-.45Z"/><path d="M76.53,395.88c-3.38-1.15-3.82-2.54-1.9-5.06C75.23,392.43,75.79,393.91,76.53,395.88Z"/><path d="M83.67,392l-3.4-1.15c2.86-1.48,2.9-1.73.93-3.75L82.78,386C83.08,388,83.31,389.59,83.67,392Z"/><path d="M212.27,494.4l-3-4.56C213.1,490.36,213.57,491,212.27,494.4Z"/><path d="M244,260.1l4.49,1.08-.23,1.88C247,261.55,243.17,264.24,244,260.1Z"/><path d="M206.72,483.52c1-1.61.9-3.78,3.31-3.62l-1.67,4.92Z"/><path d="M211.74,152.44l3.09,1.19c-.19,1.47-.57,2.46-2.22,2.66-.29-1.44-.55-2.68-.8-3.93Z"/><path d="M107.69,392.6c-1.3-.57-3.17-.51-3.14-3.1C106,390.55,107.73,390.53,107.69,392.6Z"/><path d="M305.62,352.84v3.41c-.86.57-1.47.36-1.72-.67S303.57,353.36,305.62,352.84Z"/><path d="M115.74,282.25l-2.1-2.72h3.1C116.4,280.44,116.16,281.09,115.74,282.25Z"/><path d="M208.88,538.51c.12,2.58-.07,2.72-3.62,2.56Z"/><path d="M239.25,440.28c.47,1.11,2.56,1.8.46,4l-1.39-3.63Z"/><path d="M380.84,157.18c-.12-.76-.24-1.53-.35-2.29l-.09.09,3.45.41.1.89-3.2.84Z"/><path d="M425.28,419.87l1.64,2.76a2.2,2.2,0,0,1-2.65-1.46c-.09-.24.72-.8,1.11-1.22Z"/><path d="M305.65,341.73v-2.32c.55.15,1,.13,1.12.33C307.46,340.8,307.5,341.64,305.65,341.73Z"/><path d="M339.47,32c-.88-1.58-1.3-2.74-.23-4.44C340.19,29.06,341.09,30.12,339.47,32Z"/><path d="M156.82,225.55c2.28-.49,2.28-.49,2.78,2.35Z"/><path d="M469.54,471.76c-.21.92-.43,1.84-.64,2.75l-2.17-.94.09-.75Z"/><path d="M334.7,485.88l2,1.22C334.83,488,334.83,488,334.7,485.88Z"/><path d="M530.08,447.52c-1.24.6-1.49,2.87-3.93,2.14a5.31,5.31,0,0,1,3.92-2.14Z"/><path d="M175.4,156l-2.5,1.61c-.46-2.31,1.17-1.86,1.94-2.38Z"/><path d="M301.51,45.26c.74-1.46,1.56-2,2.86-.48Z"/><path d="M208.81,424.19c1.45-.89,2.34-.72,2.35,1.41Z"/><path d="M121.77,283.18c-1.23,1.14-1.93.61-2.75-.26C120.14,281.81,120.79,282.63,121.77,283.18Z"/><path d="M509,335.21c.05-1.22.11-2.45.16-3.71,1.21,2,1.21,2-.25,3.62Z"/><path d="M211.81,152.36l-2.25-.55,1.54-.89c.21.5.43,1,.64,1.51Z"/><path d="M330.66,183.51c.21-.52.29-1.2.67-1.53s.93.46.46,1.13a4.93,4.93,0,0,1-.42.49l-.24.23Z"/><path d="M337.17,26.76l-1.83,1.69-.55-.56,1.7-1.7S336.73,26.39,337.17,26.76Z"/><path d="M212.78,431.71a8.13,8.13,0,0,1,1,.82c0,.05-.39.69-.47.66a10.21,10.21,0,0,1-1.37-.67Z"/><path d="M291.47,59c.12-.54.25-1.08.38-1.62l1.65.93,0-.11-2.16.7Z"/><path d="M380.75,157.12c-1,.63-2,.94-3.32-.64l3.4.69Z"/><path d="M246,445.74c.23.36.56.7.49.82a3.35,3.35,0,0,1-.8.74c-.11-.27-.34-.55-.3-.8S245.68,446.07,246,445.74Z"/><path d="M108.4,396.83v1.53a4.09,4.09,0,0,1-.62,0c0-.51,0-1,0-1.54Z"/><path d="M369.5,288.77l-1.82,2.32c-.09-2.33.92-2.28,1.94-2.21Z"/><path d="M246.4,252.62l-.7-1.73.63-.31.9,1.64Z"/><path d="M415.63,77.5c1.1,3.34,1.81,6.94.11,10.68a10.25,10.25,0,0,1-6.2,5.59,4,4,0,0,1-4.63-1.2c-2.41-2.81-2.66-8.46-.69-11.63.68-1.11,1.31-1.73,2.6-1.15,1.56.71,2.05-.24,2.42-1.7-1.88-.29-3-1.32-2.75-3.71,1.06.8,1.84,2.37,3.38,1.18.3-.23,1,0,1.51.14C412.72,76.21,414,76.81,415.63,77.5Z"/><path d="M413.14,75.15c-.89-1.58-1.31-2.75-.24-4.45C413.85,72.23,414.76,73.3,413.14,75.15Z"/><path d="M410.83,69.94,409,71.62l-.55-.56c.56-.57,1.12-1.14,1.7-1.69A7.44,7.44,0,0,1,410.83,69.94Z"/></svg>