<svg xmlns="http://www.w3.org/2000/svg" viewBox="0 0 595.28 595.28"><defs><style>.cls-1{isolation:isolate;}.cls-2{fill:#f5cac9;mix-blend-mode:multiply;}</style></defs><g class="cls-1"><g id="Layer_1" data-name="Layer 1"><path class="cls-2" d="M409.14,312.57c-32.71,11.17-62.39,16.75-100.64,22-49.93,6.81-105.42,9.58-135,4.91-7.92-1.25-37.07-3.69-46.37-16.43-2.59-3.49-2.17-7.35-.19-11.5,3.23-6.76,9.41-12.34,17.94-16.55a222.41,222.41,0,0,1,42.18-15.84c21.83-5.73,68.34-16.86,145.64-23.3a556.46,556.46,0,0,1,78.39-1.62c12.17.63,36.3,3,52,11.38,10,4.78,8.3,13.63.28,21.69C455.71,295,417.53,309.86,409.14,312.57Z"/></g></g></svg>