<svg xmlns="http://www.w3.org/2000/svg" viewBox="0 0 595.28 595.28"><defs><style>.cls-1{isolation:isolate;}.cls-2{fill:#c5465d;mix-blend-mode:multiply;}</style></defs><g class="cls-1"><g id="Layer_1" data-name="Layer 1"><path class="cls-2" d="M171.84,139c43.78-7.62,217.35-10.76,249.51.12.83,4.65,2.09,9.85,2.65,15.12,4,37.78,3.42,75.62.75,113.46-1.84,26-3.5,52.12-6.13,78.09-1.32,12.93-4.13,25.77-7.15,38.44-8.59,36-34.2,56.34-66.55,69.32-18.53,7.43-38.36,11.5-58.37,8.7-41.59-5.83-80.36-17.34-103.3-57.38-6-10.42-9.91-21.33-10.9-33.1-1.63-19.3-3.26-38.64-3.61-58-.59-32.07-.28-64.16-.12-96.24.1-21.23.49-42.46,1-63.69C169.77,149,171,144.2,171.84,139Z"/></g></g></svg>