<svg xmlns="http://www.w3.org/2000/svg" viewBox="0 0 595.28 595.28"><defs><style>.cls-1{isolation:isolate;}.cls-2{fill:#c5465d;mix-blend-mode:multiply;}</style></defs><g class="cls-1"><g id="Layer_1" data-name="Layer 1"><path class="cls-2" d="M248.3,209.65c.5-6.93.72-12.06,1.26-17.16.68-6.31,2.55-8.7,8.85-9.59,4.73-.68,9.83-1.07,14.4,0,30.33,7.05,57.49,19.93,77.83,44.48,17.05,20.6,25.7,44.69,28.76,71,4.87,41.84-10.64,76.48-38.62,106.23-15.78,16.78-34.28,30-56.74,36.67a72.33,72.33,0,0,1-17.54,3.3c-15.1.59-18-3.72-19.14-17-1.46-16.61-.58-33.43-.81-50.16-.24-18.16-.92-36.33-.8-54.49.12-17.34,1.14-34.66,1.55-52,.44-19,.62-38.07.92-57.1C248.25,211.82,248.3,209.83,248.3,209.65Z"/></g></g></svg>