<svg id="Layer_1" data-name="Layer 1" xmlns="http://www.w3.org/2000/svg" viewBox="0 0 327.43 416.99"><defs><style>.cls-1{fill:#c5465d;}.cls-2{fill:none;stroke:#c5465d;stroke-miterlimit:10;stroke-width:3px;}</style></defs><path class="cls-1" d="M224.74,106.57a1.18,1.18,0,0,1,.95,1.2v.91a1.23,1.23,0,0,1-1,1c-6.32,1.27-13.65,2.81-19.94,4.08-.56,0-1.23-.32-1.33-.81a.53.53,0,0,1,0-.28,1.07,1.07,0,0,1,.88-1.13l4.35-.87V105.8l-4.35-.81a1.12,1.12,0,0,1-.84-1.33,1.08,1.08,0,0,1,1.33-.85Zm-13.87-.35v4l11.45-2Z"/><path class="cls-1" d="M203.46,123.74a1.21,1.21,0,0,1,.35-.84h0a1.28,1.28,0,0,1,.84-.36h19.84a1.18,1.18,0,0,1,1.16,1.2,1.15,1.15,0,0,1-1.16,1.16H205.88v5.83a1.23,1.23,0,0,1-1.26,1.23,1.21,1.21,0,0,1-1.16-1.23Z"/><path class="cls-1" d="M203.49,142.91a1.06,1.06,0,0,1,1-1.16,1.12,1.12,0,0,1,1.09,1.16V145l17.84.07v-2.18a1.09,1.09,0,0,1,1.09-1.16,1,1,0,0,1,1,1.16v6.56a1,1,0,0,1-1,1.16,1.09,1.09,0,0,1-1.09-1.16v-2.14l-17.84,0v2.14a1.12,1.12,0,0,1-1.09,1.19,1.07,1.07,0,0,1-1-1.19Z"/><path class="cls-1" d="M203.49,169.2a1.33,1.33,0,0,1,.78-1.15,4.73,4.73,0,0,1-.78-2.5v-.24a4.68,4.68,0,0,1,2.81-4.15c1.79-.84,4.25-1.23,7.69-1.23h.28c7.13,0,10.82,2.22,11.1,5.48v.32a4.26,4.26,0,0,1-3.3,4.46,1.15,1.15,0,1,1-.28-2.28.1.1,0,0,1,.07,0,1.05,1.05,0,0,0,.53-.28h0c.35-.28.7-.6.74-1.79v-.21c0-1-1.69-3.3-8.85-3.37H214c-6.81.07-8.18,1.68-8.18,3.12v.14a2.1,2.1,0,0,0,1,2.14,6.8,6.8,0,0,0,3.19.5c.56,0,2.18,0,2.63-.07v-2a1.13,1.13,0,0,1,1.13-1.12,1.19,1.19,0,0,1,1.16,1.15v3.2a1.21,1.21,0,0,1-1.23,1.16l-9.06-.07A1.14,1.14,0,0,1,203.49,169.2Z"/><path class="cls-1" d="M203.49,187.6a1.66,1.66,0,0,1,.71-.81l15.1-5.54-14.75,0a1.07,1.07,0,0,1-1.06-1.12,1,1,0,0,1,1.06-1l19.7,0a1.22,1.22,0,0,1,1.09.88l0,.32a1.25,1.25,0,0,1-.67,1.16L209.75,187l14.5,0a1.08,1.08,0,1,1,0,2.15l-19.77.07a1.19,1.19,0,0,1-.88-.53.78.78,0,0,1-.17-.53.51.51,0,0,1,0-.21Z"/><path class="cls-1" d="M203.49,199.78a1.06,1.06,0,0,1,1-1.16,1.12,1.12,0,0,1,1.09,1.16v2.11l17.84.07v-2.18a1.09,1.09,0,0,1,1.09-1.16,1,1,0,0,1,1,1.16v6.57a1,1,0,0,1-1,1.16,1.09,1.09,0,0,1-1.09-1.16v-2.14l-17.84,0v2.14a1.13,1.13,0,0,1-1.09,1.2,1.07,1.07,0,0,1-1-1.2Z"/><path class="cls-1" d="M203.49,225.52a1.61,1.61,0,0,1,.71-.81l15.1-5.55-14.75,0a1.08,1.08,0,0,1-1.06-1.13,1,1,0,0,1,1.06-1l19.7,0a1.21,1.21,0,0,1,1.09.88l0,.31a1.24,1.24,0,0,1-.67,1.16l-14.95,5.51,14.5,0a1.07,1.07,0,1,1,0,2.14l-19.77.07a1.2,1.2,0,0,1-.88-.52.78.78,0,0,1-.17-.53.51.51,0,0,1,0-.21Z"/><path class="cls-1" d="M203.49,245a1.35,1.35,0,0,1,.78-1.16,4.73,4.73,0,0,1-.78-2.49v-.25A4.66,4.66,0,0,1,206.3,237c1.79-.85,4.25-1.23,7.69-1.23h.28c7.13,0,10.82,2.21,11.1,5.48v.31a4.26,4.26,0,0,1-3.3,4.46,1.15,1.15,0,1,1-.28-2.28.1.1,0,0,1,.07,0,1.05,1.05,0,0,0,.53-.28h0c.35-.28.7-.6.74-1.79v-.21c0-1-1.69-3.3-8.85-3.37H214c-6.81.07-8.18,1.68-8.18,3.12v.15a2.11,2.11,0,0,0,1,2.14A6.92,6.92,0,0,0,210,244c.56,0,2.18,0,2.63-.07v-2a1.13,1.13,0,0,1,1.13-1.12,1.19,1.19,0,0,1,1.16,1.16v3.19a1.21,1.21,0,0,1-1.23,1.16l-9.06-.07A1.14,1.14,0,0,1,203.49,245Z"/><path class="cls-1" d="M169.08,143.38a1.35,1.35,0,0,1,.92-1.16c6.28-1.26,13.51-2.84,19.76-4.11.57,0,1.3.18,1.44.92a1.18,1.18,0,0,1-.94,1.4l-16.61,3.3c5.19,1,11.94,2.29,16.61,3.13a1.23,1.23,0,0,1,.94,1.4,1.1,1.1,0,0,1-1.44.88L170,145.21a1.31,1.31,0,0,1-.92-1.16Z"/><path class="cls-1" d="M169.26,159.32a1.05,1.05,0,0,1,1-1.16,1.12,1.12,0,0,1,1.09,1.16v2.11l17.83.07v-2.18a1.09,1.09,0,0,1,1.09-1.16,1,1,0,0,1,1,1.16v6.57a1,1,0,0,1-1,1.15,1.08,1.08,0,0,1-1.09-1.15v-2.15l-17.83,0v2.14a1.12,1.12,0,0,1-1.09,1.19,1.06,1.06,0,0,1-1-1.19Z"/><path class="cls-1" d="M169.12,181.58a6.06,6.06,0,0,1,3.12-4.88h0a1.18,1.18,0,0,1,1.61.42,1.15,1.15,0,0,1-.42,1.58,4,4,0,0,0-2,2.88,3.09,3.09,0,0,0,.77,1.89,3.68,3.68,0,0,0,2.14.81c.14,0,.25,0,.32,0h.18c1.26-.18,3.16-1.79,4.91-3.2a8.83,8.83,0,0,0,1-.84c1.58-1.33,3.65-3.13,6.32-3.13a4.27,4.27,0,0,1,4.32,4.5c0,2.7-2.28,3.93-3.37,4.39a1.15,1.15,0,0,1-1.51-.56,1.12,1.12,0,0,1,.56-1.51c1.2-.57,2.14-1,2.14-2.32a2,2,0,0,0-2-2.21c-1.62-.14-3.55,1.44-5.17,2.7-.35.28-.7.56-1,.84s-.67.56-1.06.85a11.74,11.74,0,0,1-4.81,2.74,3.82,3.82,0,0,1-.88.07,5,5,0,0,1-3.82-1.58A4.47,4.47,0,0,1,169.12,181.58Z"/><path class="cls-1" d="M169.26,197.23a1,1,0,0,1,1-1.15,1.11,1.11,0,0,1,1.09,1.15v2.11l17.83.07v-2.18a1.08,1.08,0,0,1,1.09-1.15,1,1,0,0,1,1,1.15v6.57a1,1,0,0,1-1,1.16,1.09,1.09,0,0,1-1.09-1.16v-2.14l-17.83,0v2.14a1.12,1.12,0,0,1-1.09,1.19,1.07,1.07,0,0,1-1-1.19Z"/><path class="cls-1" d="M168.91,219.32c.38-3.69,4.39-5.51,11-5.51h.39a20.83,20.83,0,0,1,7.55,1.12,5.07,5.07,0,0,1,3.65,4.32c0,.07,0,.21,0,.24-.25,4.67-5.9,5.55-11.62,5.69h-.14a18.77,18.77,0,0,1-7.41-1.23c-1.86-.84-3.44-2.31-3.44-4.39Zm20.26.1c-.07-1-.63-1.68-2.25-2.38a19.38,19.38,0,0,0-6.49-.85H180c-7,.11-8.67,1.79-8.67,3.2v.17c0,.88.45,1.59,2,2.29a16.8,16.8,0,0,0,6.36,1H180a19.09,19.09,0,0,0,6.82-1C188.33,221.36,189.2,220.65,189.17,219.42Z"/><path class="cls-1" d="M169.26,241.93a1.55,1.55,0,0,1,.7-.81l15.1-5.55-14.75,0a1.07,1.07,0,0,1-1.05-1.13,1,1,0,0,1,1.05-1l19.7,0a1.2,1.2,0,0,1,1.09.88l0,.31a1.25,1.25,0,0,1-.66,1.16l-15,5.52,14.5,0a1.07,1.07,0,1,1,0,2.14l-19.77.07a1.22,1.22,0,0,1-.88-.52.84.84,0,0,1-.17-.53.51.51,0,0,1,0-.21Z"/><path class="cls-1" d="M190.5,274.65a1.16,1.16,0,0,1,.95,1.19v.91a1.23,1.23,0,0,1-1,1.06c-6.32,1.26-13.66,2.81-19.95,4.07-.56,0-1.23-.31-1.33-.81a.53.53,0,0,1,0-.28,1.08,1.08,0,0,1,.88-1.12l4.35-.88v-4.91l-4.35-.81a1.13,1.13,0,0,1-.84-1.34,1.08,1.08,0,0,1,1.33-.84Zm-13.87-.35v4l11.45-2Z"/><path class="cls-1" d="M169.26,298.8a1.63,1.63,0,0,1,.7-.81l15.1-5.54-14.75,0a1.07,1.07,0,0,1-1.05-1.12,1,1,0,0,1,1.05-1l19.7,0a1.21,1.21,0,0,1,1.09.88l0,.32a1.26,1.26,0,0,1-.66,1.16l-15,5.51,14.5,0a1.07,1.07,0,1,1,0,2.14l-19.77.07a1.2,1.2,0,0,1-.88-.53.8.8,0,0,1-.17-.53.51.51,0,0,1,0-.21Z"/><path class="cls-1" d="M169.33,310.46a1.15,1.15,0,0,1,1.09-.95h19.77a1.17,1.17,0,0,1,1.12,1c0,.21,0,.46,0,.81a8.3,8.3,0,0,1-2.1,5.48,9.89,9.89,0,0,1-5.48,2.1c-1,.07-2.32.15-3.83.15a20.69,20.69,0,0,1-2.17-.08,11.06,11.06,0,0,1-6.43-2.1,6.76,6.76,0,0,1-2.11-5.13,6.32,6.32,0,0,1,.07-1.23Zm2.21,1.54a4.58,4.58,0,0,0,1.23,3.09,8.66,8.66,0,0,0,5.16,1.58c.77,0,1.41.07,2,.07,1.44,0,2.64-.07,3.62-.14a7.83,7.83,0,0,0,4.14-1.51,5.2,5.2,0,0,0,1.37-3.26H171.72Z"/><path class="cls-1" d="M136.24,204.84a6.08,6.08,0,0,1,3.12-4.88h0a1.19,1.19,0,0,1,1.61.42,1.15,1.15,0,0,1-.42,1.58,4,4,0,0,0-2,2.88,3.11,3.11,0,0,0,.77,1.9,3.68,3.68,0,0,0,2.14.81c.14,0,.25,0,.32,0h.18c1.26-.17,3.16-1.79,4.91-3.19a9,9,0,0,0,1-.85c1.58-1.33,3.65-3.12,6.32-3.12a4.27,4.27,0,0,1,4.32,4.49c0,2.71-2.28,3.94-3.37,4.39a1.14,1.14,0,0,1-1.51-.56,1.12,1.12,0,0,1,.56-1.51c1.19-.56,2.14-1,2.14-2.32a2,2,0,0,0-2-2.21c-1.61-.14-3.54,1.44-5.16,2.71-.35.28-.7.56-1,.84s-.67.56-1.06.84a11.52,11.52,0,0,1-4.81,2.74,3.86,3.86,0,0,1-.88.07,5,5,0,0,1-3.82-1.58A4.47,4.47,0,0,1,136.24,204.84Z"/><path class="cls-1" d="M155.94,222.61l0-2.64a1.25,1.25,0,1,1,2.49,0c0,2.53,0,5.09,0,7.62a1.26,1.26,0,0,1-1.3,1.23,1.28,1.28,0,0,1-1.23-1.27V225.1H137.5a1.25,1.25,0,0,1-1.23-1.26,1.27,1.27,0,0,1,1.23-1.23Z"/><path class="cls-1" d="M145.61,242a10.78,10.78,0,0,1-.17-1.61h-8.15a1.13,1.13,0,0,1-1.12-1.09,1.11,1.11,0,0,1,1.12-1.13H157.2a1.15,1.15,0,0,1,1.16.95,13.39,13.39,0,0,1,.1,1.51c.07,2.07-.8,6.64-6.07,6.74-3.13,0-5.16-1.37-6.07-2.91l-.29-.6c-2.67,1.09-5.62,2.25-8.28,3.34-.6.17-1.27,0-1.41-.35a1.36,1.36,0,0,1-.17-.7,1,1,0,0,1,.66-1Zm2-1.61c.11,1.82.53,4.77,4.57,4.77,3.54-.07,4.14-2.63,4.25-4.7Z"/><path class="cls-1" d="M157.62,260a1.17,1.17,0,0,1,.95,1.19v.91a1.24,1.24,0,0,1-1,1.06c-6.32,1.26-13.66,2.81-20,4.07-.56,0-1.23-.31-1.33-.81a.53.53,0,0,1,0-.28,1.08,1.08,0,0,1,.88-1.12l4.35-.88v-4.91l-4.35-.81a1.13,1.13,0,0,1-.84-1.34,1.08,1.08,0,0,1,1.33-.84Zm-13.87-.35v4l11.45-2Z"/><path class="cls-1" d="M155.94,279.48l0-2.63a1.25,1.25,0,0,1,2.49,0c0,2.53,0,5.1,0,7.62a1.26,1.26,0,0,1-1.3,1.23,1.28,1.28,0,0,1-1.23-1.26V282H137.5a1.25,1.25,0,0,1,0-2.5Z"/><path class="cls-1" d="M146.81,297.84h-8.26c0,1.9,0,4,0,5.83a1.17,1.17,0,0,1-1.16,1.13,1.12,1.12,0,0,1-1.05-1.13l0-6.95a1.1,1.1,0,0,1,1.09-1.09h19.88a1,1,0,0,1,.77.32,1.07,1.07,0,0,1,.35.8l0,6.89a1.14,1.14,0,0,1-1.19,1.09,1.12,1.12,0,0,1-1-1.13l0-5.76H149v3.44a1.13,1.13,0,0,1-1.13,1.09,1.1,1.1,0,0,1-1.08-1.12Z"/><path class="cls-1" d="M136.38,322.63a1.35,1.35,0,0,1,.77-1.16,4.72,4.72,0,0,1-.77-2.49v-.25a4.64,4.64,0,0,1,2.81-4.14c1.79-.84,4.25-1.23,7.69-1.23h.28c7.13,0,10.81,2.21,11.09,5.48v.31a4.26,4.26,0,0,1-3.3,4.46,1.14,1.14,0,0,1-1.33-.95,1.16,1.16,0,0,1,1-1.33.15.15,0,0,1,.07,0,1.18,1.18,0,0,0,.53-.29h0c.35-.28.71-.59.74-1.79V319c0-1-1.68-3.3-8.85-3.37h-.24c-6.82.07-8.19,1.69-8.19,3.13v.14a2.1,2.1,0,0,0,1,2.14,6.69,6.69,0,0,0,3.19.49c.57,0,2.18,0,2.64-.07v-2a1.13,1.13,0,0,1,1.12-1.13,1.2,1.2,0,0,1,1.16,1.16v3.19a1.21,1.21,0,0,1-1.23,1.16l-9.06-.07A1.12,1.12,0,0,1,136.38,322.63Z"/><path class="cls-1" d="M145.89,336.15c3.48-1.16,7.34-2.5,10.85-3.66a1.32,1.32,0,0,1,1.62.71,1.22,1.22,0,0,1-.74,1.54h0l-8.75,2.7c2.32.74,6.32,2.11,8.78,2.92a1.36,1.36,0,0,1,.74,1.51,1.4,1.4,0,0,1-1.62.7l-10.95-4.07h-8.43a1.18,1.18,0,0,1-1.23-1.16,1.26,1.26,0,0,1,1.23-1.19Z"/><line class="cls-2" x1="114.69" y1="417.22" x2="114.69" y2="247.27"/></svg>